<svg width="35" height="35" viewBox="0 0 35 35" fill="none" xmlns="http://www.w3.org/2000/svg">
<path d="M13.5772 0.368028C16.8883 -0.33003 20.3319 -0.0306132 23.4728 1.22841C26.6137 2.48743 29.3108 4.64949 31.2229 7.44126C33.1351 10.233 34.1765 13.5291 34.2155 16.9127C34.2545 20.2963 33.2893 23.6155 31.4419 26.4506C29.5946 29.2857 26.9481 31.5093 23.837 32.8404C20.7259 34.1714 17.2901 34.5501 13.9638 33.9285C10.6376 33.3069 7.57031 31.7129 5.14991 29.3482C2.7295 26.9835 1.06463 23.9541 0.365819 20.6432C-0.566846 16.203 0.300515 11.5741 2.77748 7.7728C5.25444 3.97146 9.13857 1.30832 13.5772 0.368028Z" fill="#128A5C" fill-opacity="0.69"/>
<path opacity="0.2" d="M13.5772 0.368028C16.8883 -0.33003 20.3319 -0.0306132 23.4728 1.22841C26.6137 2.48743 29.3108 4.64949 31.2229 7.44126C33.1351 10.233 34.1765 13.5291 34.2155 16.9127C34.2545 20.2963 33.2893 23.6155 31.4419 26.4506C29.5946 29.2857 26.9481 31.5093 23.837 32.8404C20.7259 34.1714 17.2901 34.5501 13.9638 33.9285C10.6376 33.3069 7.57031 31.7129 5.14991 29.3482C2.7295 26.9835 1.06463 23.9541 0.365819 20.6432C-0.566846 16.203 0.300515 11.5741 2.77748 7.7728C5.25444 3.97146 9.13857 1.30832 13.5772 0.368028Z" fill="white" fill-opacity="0.7"/>
<path opacity="0.15" d="M27.8715 20.6765C25.2392 29.2897 16.3761 33.2714 7.87952 31.4721C9.98751 32.8369 12.3701 33.721 14.8581 34.0615C17.3462 34.4021 19.8787 34.1908 22.2759 33.4426C24.6731 32.6944 26.8762 31.4277 28.7289 29.7324C30.5815 28.0372 32.0383 25.9548 32.9957 23.6333C33.9532 21.3117 34.3879 18.8079 34.269 16.2995C34.15 13.791 33.4804 11.3395 32.3076 9.119C31.1347 6.89845 29.4875 4.96329 27.4828 3.45089C25.478 1.93849 23.165 0.885932 20.7077 0.36792C25.1726 1.76736 30.6704 11.5301 27.8715 20.6765Z" fill="white" fill-opacity="0.7"/>
</svg>
