<svg width="220" height="445" viewBox="0 0 220 445" fill="none" xmlns="http://www.w3.org/2000/svg">
<path d="M72.2569 304.614C74.2061 308.879 78.3211 306.997 80.3703 311.545C81.7965 314.699 81.9399 318.283 80.7702 321.541C80.0397 323.153 79.5567 324.866 79.3374 326.622C79.3374 328.771 79.3374 330.937 79.3374 333.103C79.3866 336.528 79.6705 339.946 80.1871 343.332C81.2866 351.662 77.0383 359.992 71.4906 365.973C68.5751 369.122 66.3093 369.005 62.4608 370.838C59.8285 372.104 55.9135 373.037 53.4978 371.038C51.0821 369.039 50.6489 365.49 50.7988 362.541C50.9987 358.926 52.1816 357.993 53.2145 354.578C54.2284 350.774 54.7271 346.852 54.6973 342.916C54.67 339.848 54.3464 336.791 53.731 333.786C52.7481 328.438 52.998 324.073 49.9325 316.51C48 311.695 40.7195 293.735 40.7195 293.735L67.3755 279.441L72.2569 304.614Z" fill="#FFA8A7"/>
<path d="M81.8863 311.612C83.6557 312.621 85.0081 314.228 85.7015 316.143C85.4929 319.729 84.5816 323.238 83.0193 326.472C80.9534 331.02 80.2037 332.886 81.0867 336.552C82.5941 341.307 82.9986 346.344 82.2695 351.279C81.7488 355.138 80.396 358.838 78.3048 362.123C76.2136 365.408 73.4338 368.2 70.1577 370.305C61.961 375.852 58.2292 375.536 55.6635 374.886C53.5777 374.057 51.7046 372.771 50.1824 371.121L81.8863 311.612Z" fill="black"/>
<path d="M71.9237 302.848L72.2569 304.614C72.2623 306.583 71.953 308.541 71.3406 310.412C69.8745 315.41 65.5429 318.659 63.8603 320.325C63.3631 319.761 62.7499 319.311 62.0626 319.006C61.3753 318.701 60.6303 318.549 59.8785 318.559C56.5465 318.325 50.5656 318.425 49.8825 319.892C49.1994 321.358 53.2145 332.47 53.4144 340.5C53.6143 348.53 51.915 351.562 49.3161 357.476C47.4668 361.708 45.7008 369.788 52.015 372.071C55.347 373.287 65.7595 373.087 74.9392 361.808C83.0859 351.812 79.9371 341.566 78.521 335.885C77.1049 330.204 79.0375 326.972 81.2366 320.241C82.1862 317.309 83.1359 315.127 81.9197 311.611C79.504 307.996 77.4548 307.796 75.2557 305.581C73.5231 303.765 73.3231 302.282 71.9237 302.848Z" fill="#37474F"/>
<path d="M63.8603 320.325C63.2988 320.73 62.8977 321.32 62.7273 321.991C62.6423 322.669 62.6761 323.357 62.8273 324.023C63.0772 325.323 63.2771 326.572 63.4604 327.872C63.8935 330.421 64.2767 332.986 64.56 335.552C64.8459 338.119 64.9905 340.699 64.9931 343.282C64.9972 345.882 64.7179 348.474 64.1601 351.012C65.1587 348.559 65.7496 345.959 65.9094 343.315C66.1066 340.679 66.062 338.03 65.7762 335.402C65.4865 332.798 65.0527 330.211 64.4767 327.655C64.1768 326.389 63.8269 325.106 63.4604 323.873C63.2617 323.28 63.1386 322.665 63.0939 322.041C63.1676 321.404 63.4352 320.805 63.8603 320.325Z" fill="black"/>
<path d="M65.8762 349.163C62.8607 347.647 54.4141 346.647 52.4315 349.163L52.1983 350.063C51.9823 349.126 52.094 348.144 52.5148 347.281C53.2145 345.615 59.1789 344.265 66.1427 347.147C66.8425 347.93 66.8091 349.496 65.8762 349.163Z" fill="#FAFAFA"/>
<path d="M66.126 342.499C63.2105 340.833 55.4803 339.684 53.3645 342.116V342.866C53.1322 342.481 53.0095 342.04 53.0095 341.591C53.0095 341.142 53.1322 340.701 53.3645 340.317C54.1641 338.734 59.6786 337.235 66.4925 340.533C67.1589 341.266 67.0257 342.832 66.126 342.499Z" fill="#FAFAFA"/>
<path d="M65.7095 335.569C62.6774 334.136 54.7972 333.303 52.9146 335.952L53.0313 336.851C52.7957 336.494 52.6357 336.093 52.5612 335.672C52.4867 335.251 52.4992 334.819 52.5981 334.402C53.1312 332.653 58.9289 330.904 65.9261 333.569C66.7091 334.336 66.6924 335.835 65.7095 335.569Z" fill="#FAFAFA"/>
<path d="M65.1764 329.721C62.161 328.305 53.781 327.339 51.8484 329.987L51.9984 330.887C51.5211 330.117 51.36 329.191 51.5486 328.305C52.0983 326.556 58.3625 325.073 65.3597 327.722C66.1094 328.488 66.1094 330.071 65.1764 329.721Z" fill="#FAFAFA"/>
<path d="M105.094 188.561C68.7084 197.024 55.9135 199.79 35.5883 209.319C25.459 214.067 22.4102 218.615 19.5113 225.879C17.7287 230.377 17.9786 242.156 23.2765 254.684C33.2725 278.425 36.3546 285.172 43.6517 301.432C43.6517 301.432 63.3771 301.932 69.5413 289.104L63.6104 251.702L152.192 232.36L156.223 184.996L105.094 188.561Z" fill="black"/>
<path d="M105.094 188.561L83.6357 194.009C76.4886 195.808 69.3414 197.624 62.3109 199.79C55.2762 201.928 48.3727 204.475 41.6358 207.42C38.2614 208.834 34.9687 210.436 31.7731 212.218C28.6342 213.948 25.9196 216.356 23.8263 219.265C22.8155 220.75 21.9401 222.322 21.2107 223.963C20.8442 224.78 20.461 225.629 20.1778 226.462C19.8865 227.282 19.6853 228.131 19.578 228.995C19.1539 232.587 19.2381 236.221 19.8279 239.79C20.363 243.394 21.2274 246.94 22.4102 250.386C23.5931 253.818 25.1424 257.183 26.5585 260.599L35.1884 280.974L43.6517 301.432L34.4387 281.307L25.3757 261.098C23.8929 257.766 22.2769 254.434 21.0441 250.853C19.8056 247.329 18.8966 243.698 18.3285 240.007C17.6924 236.292 17.5802 232.507 17.9953 228.761C18.1163 227.792 18.334 226.838 18.645 225.913C18.9782 224.98 19.3448 224.163 19.7113 223.297C20.4651 221.547 21.3857 219.873 22.4602 218.299C24.7063 215.21 27.6078 212.655 30.9568 210.819C34.2254 209.029 37.5903 207.422 41.0361 206.004C47.8276 203.048 54.8133 200.56 61.9444 198.557C76.1887 194.558 90.6996 191.626 105.094 188.561Z" fill="#128A5C"/>
<path opacity="0.5" d="M105.094 188.561L83.6357 194.009C76.4886 195.808 69.3414 197.624 62.3109 199.79C55.2762 201.928 48.3727 204.475 41.6358 207.42C38.2614 208.834 34.9687 210.436 31.7731 212.218C28.6342 213.948 25.9196 216.356 23.8263 219.265C22.8155 220.75 21.9401 222.322 21.2107 223.963C20.8442 224.78 20.461 225.629 20.1778 226.462C19.8865 227.282 19.6853 228.131 19.578 228.995C19.1539 232.587 19.2381 236.221 19.8279 239.79C20.363 243.394 21.2274 246.94 22.4102 250.386C23.5931 253.818 25.1424 257.183 26.5585 260.599L35.1884 280.974L43.6517 301.432L34.4387 281.307L25.3757 261.098C23.8929 257.766 22.2769 254.434 21.0441 250.853C19.8056 247.329 18.8966 243.698 18.3285 240.007C17.6924 236.292 17.5802 232.507 17.9953 228.761C18.1163 227.792 18.334 226.838 18.645 225.913C18.9782 224.98 19.3448 224.163 19.7113 223.297C20.4651 221.547 21.3857 219.873 22.4602 218.299C24.7063 215.21 27.6078 212.655 30.9568 210.819C34.2254 209.029 37.5903 207.422 41.0361 206.004C47.8276 203.048 54.8133 200.56 61.9444 198.557C76.1887 194.558 90.6996 191.626 105.094 188.561Z" fill="white"/>
<path d="M112.358 241.073L126.285 221.364C126.285 221.364 116.289 217.799 109.809 203.605C109.809 213.817 118.888 223.08 118.888 223.08L106.193 242.423L112.358 241.073Z" fill="#37474F"/>
<path d="M53.4144 247.137C51.2653 240.673 50.0824 236.608 51.1153 234.659C51.9483 233.16 54.3307 232.36 58.7123 231.327C68.8083 228.911 117.372 221.164 117.855 221.098L117.539 219.115C117.056 219.115 68.4084 226.929 58.2458 229.361C53.2478 230.577 50.5489 231.544 49.3494 233.693C47.9166 236.292 48.8996 239.99 51.5152 247.787C53.1812 252.885 55.8968 269.762 57.6794 280.924C59.3454 291.436 59.5286 292.353 59.8119 292.769L60.9281 292.019L61.5612 291.786C61.3446 291.17 60.5282 286.038 59.6619 280.607C57.7627 268.695 55.1637 252.385 53.4144 247.137Z" fill="#37474F"/>
<path d="M38.1872 291.236L43.4684 302.549C43.4684 302.549 53.1145 303.998 61.2113 299.583C69.308 295.168 70.4076 290.004 70.4076 289.737C70.4076 289.47 68.3418 277.575 68.3418 277.575C68.3418 277.575 62.0776 293.785 38.1872 291.236Z" fill="#37474F"/>
<path d="M63.6104 251.702C62.2108 245.156 59.1205 239.09 54.6473 234.109C54.6473 234.109 64.3601 237.441 67.2589 250.919L63.6104 251.702Z" fill="#37474F"/>
<path d="M135.681 375.503C136.931 380.034 142.129 380.417 143.428 385.232C144.356 388.591 143.931 392.179 142.246 395.228C141.27 396.707 140.523 398.324 140.03 400.026C139.73 402.142 139.413 404.291 139.063 406.424C138.583 409.818 138.327 413.241 138.297 416.669C138.081 424.999 132.566 432.58 126.135 437.644C122.803 440.293 120.538 439.827 116.456 440.976C113.657 441.793 109.642 442.109 107.559 439.744C105.477 437.378 105.627 433.829 106.26 430.947C107.01 427.399 108.326 426.665 109.892 423.45C111.467 419.832 112.586 416.032 113.224 412.138C113.842 409.236 114.149 406.276 114.14 403.308C114.346 395.905 113.691 388.503 112.191 381.25C110.708 373.07 107.193 361.375 107.193 361.375L136.048 351.379L135.681 375.503Z" fill="#FFA8A7"/>
<path d="M144.911 385.532C146.498 386.811 147.578 388.612 147.96 390.613C147.183 394.116 145.728 397.432 143.678 400.376C140.929 404.541 139.88 406.274 140.18 410.039C140.918 414.966 140.524 419.997 139.03 424.75C137.904 428.481 135.979 431.923 133.39 434.838C130.801 437.752 127.609 440.068 124.036 441.626C115.056 445.808 111.408 444.958 109.042 443.859C107.115 442.711 105.469 441.145 104.227 439.277L144.911 385.532Z" fill="black"/>
<path d="M135.682 375.503V378.451C135.74 379.563 135.701 380.678 135.565 381.783C134.915 387.015 127.735 389.964 125.802 391.346C125.403 390.709 124.87 390.166 124.24 389.754C123.61 389.343 122.898 389.073 122.154 388.964C118.822 388.198 112.974 387.298 112.041 388.697C111.108 390.097 113.424 401.642 112.274 409.606C111.125 417.569 109.042 420.285 105.61 425.716C103.111 429.598 100.096 437.378 105.96 440.56C109.009 442.226 119.388 443.742 130.234 434.046C139.847 425.449 138.314 414.837 137.847 409.056C137.381 403.275 139.78 400.343 143.012 394.062C144.411 391.313 145.678 389.297 145.044 385.649C143.229 381.7 140.463 381.217 138.697 378.668C137.114 376.502 137.131 375.169 135.682 375.503Z" fill="#37474F"/>
<path d="M125.686 391.296C125.069 391.605 124.584 392.125 124.319 392.762C124.133 393.417 124.06 394.099 124.103 394.778C124.103 396.094 124.103 397.361 124.103 398.677C124.103 401.276 124.103 403.858 123.97 406.44C123.845 409.019 123.578 411.588 123.17 414.137C122.767 416.705 122.08 419.219 121.121 421.634C122.509 419.374 123.505 416.896 124.07 414.304C124.682 411.734 125.056 409.112 125.186 406.474C125.344 403.86 125.344 401.24 125.186 398.627C125.102 397.327 124.969 396.011 124.803 394.728C124.721 394.103 124.721 393.471 124.803 392.846C124.944 392.256 125.25 391.719 125.686 391.296Z" fill="black"/>
<path d="M123.17 420.051C120.454 418.069 112.258 415.753 109.842 417.969L109.475 418.819C109.408 417.86 109.672 416.906 110.225 416.12C111.175 414.62 117.256 414.187 123.703 418.136C124.319 419.019 124.02 420.568 123.17 420.051Z" fill="#FAFAFA"/>
<path d="M124.486 413.454C121.87 411.322 114.49 408.989 111.941 411.055L111.791 411.805C111.627 411.385 111.582 410.927 111.662 410.484C111.741 410.04 111.942 409.626 112.241 409.289C113.274 407.856 118.905 407.257 125.169 411.572C125.686 412.471 125.302 414.021 124.486 413.454Z" fill="#FAFAFA"/>
<path d="M125.219 406.64C122.454 404.758 114.807 402.692 112.524 404.974V405.89C112.355 405.499 112.268 405.076 112.268 404.649C112.268 404.222 112.355 403.8 112.524 403.408C113.324 401.742 119.321 400.959 125.852 404.674C126.335 405.557 126.085 407.123 125.219 406.64Z" fill="#FAFAFA"/>
<path d="M125.552 400.809C122.803 398.927 114.673 396.661 112.374 398.96V399.893C112.042 399.047 112.042 398.107 112.374 397.261C113.174 395.595 119.605 395.145 126.102 398.927C126.668 399.693 126.419 401.259 125.552 400.809Z" fill="#FAFAFA"/>
<path d="M104.877 188.577C113.924 212.551 126.235 221.364 126.235 221.364C126.235 221.364 99.7626 258.166 95.0311 267.529C89.5 278.342 90.3663 285.122 91.4492 292.619C93.3985 306.047 108.292 370.171 108.292 370.171C115.74 374.87 134.815 369.588 136.614 363.874C136.614 363.874 136.864 352.212 136.931 341.433C136.931 331.437 137.531 314.127 134.732 303.915C130.367 287.954 132.599 288.671 137.864 282.606C141.513 278.408 159.822 262.881 175.549 246.188C188.794 232.127 192.376 223.08 194.691 211.935C196.724 202.205 196.357 197.89 197.423 179.981L104.877 188.577Z" fill="black"/>
<path d="M108.292 370.088C104.96 357.11 101.795 344.065 98.7463 331.004C97.1969 324.473 95.7808 317.926 94.348 311.362C92.9153 304.798 91.4992 298.267 90.4662 291.57C89.9178 288.2 89.7446 284.781 89.9498 281.374C90.2582 277.939 91.0781 274.57 92.3822 271.378C93.6718 268.236 95.2561 265.224 97.1136 262.381C98.9129 259.538 100.768 256.734 102.678 253.968C110.275 242.861 118.127 231.982 126.235 221.331L114.94 237.991C111.175 243.539 107.409 249.087 103.744 254.651C101.912 257.45 100.129 260.282 98.3464 263.098C96.558 265.884 95.0406 268.835 93.8149 271.911C92.5764 274.953 91.8123 278.167 91.5492 281.44C91.3792 284.728 91.5747 288.025 92.1322 291.27C94.1981 304.431 97.3135 317.543 99.9958 330.654L104.194 350.329L108.292 370.088Z" fill="#128A5C"/>
<path opacity="0.5" d="M108.292 370.088C104.96 357.11 101.795 344.065 98.7463 331.004C97.1969 324.473 95.7808 317.926 94.348 311.362C92.9153 304.798 91.4992 298.267 90.4662 291.57C89.9178 288.2 89.7446 284.781 89.9498 281.374C90.2582 277.939 91.0781 274.57 92.3822 271.378C93.6718 268.236 95.2561 265.224 97.1136 262.381C98.9129 259.538 100.768 256.734 102.678 253.968C110.275 242.861 118.127 231.982 126.235 221.331L114.94 237.991C111.175 243.539 107.409 249.087 103.744 254.651C101.912 257.45 100.129 260.282 98.3464 263.098C96.558 265.884 95.0406 268.835 93.8149 271.911C92.5764 274.953 91.8123 278.167 91.5492 281.44C91.3792 284.728 91.5747 288.025 92.1322 291.27C94.1981 304.431 97.3135 317.543 99.9958 330.654L104.194 350.329L108.292 370.088Z" fill="white"/>
<path d="M176.199 182.563C183.163 199.773 187.361 210.169 168.085 230.561C162.288 236.708 156.123 242.772 150.192 248.637C132.549 266.03 118.622 279.758 120.204 288.121C120.837 291.336 121.87 295.052 123.003 299.35C125.769 309.512 127.235 312.345 128.384 327.672C129.351 340.683 130.4 359.926 130.85 368.705C131.534 368.389 132.201 368.039 132.849 367.656C132.4 358.859 131.367 340.1 130.434 327.538C129.284 311.978 127.768 309.029 124.986 298.783C123.836 294.518 122.837 290.836 122.22 287.704C120.788 280.441 135.732 265.713 151.559 250.119C157.523 244.238 163.687 238.158 169.518 231.993C189.71 210.619 185.062 199.123 178.048 181.747C177.382 180.081 176.698 178.415 175.999 176.616L173.916 176.915C174.733 178.848 175.482 180.731 176.199 182.563Z" fill="#37474F"/>
<path d="M174.683 225.546C174.316 225.429 165.553 222.547 164.353 208.686C163.773 197.998 161.024 187.54 156.273 177.948L158.139 177.099C163.001 186.906 165.834 197.592 166.469 208.519C167.552 220.998 175.266 223.513 175.349 223.513L174.683 225.546Z" fill="#37474F"/>
<path d="M106.093 362.075C110.525 366.04 128.884 364.64 136.881 356.96V367.239C131.233 374.303 117.905 377.435 108.859 372.371L106.093 362.075Z" fill="#37474F"/>
<path d="M50.1824 371.121C49.4807 370.592 48.9106 369.908 48.5164 369.122C48.3159 368.743 48.1487 368.347 48.0166 367.939C46.967 364.607 48.1166 360.225 49.2994 357.493C50.6509 354.819 51.7659 352.032 52.6314 349.163H52.3815L52.1483 350.046C51.9323 349.11 52.044 348.128 52.4648 347.264C52.5837 347.033 52.7549 346.834 52.9646 346.681C53.1532 345.384 53.2644 344.076 53.2978 342.766C53.2978 342.499 53.2978 342.283 53.2978 341.999V342.766C53.07 342.389 52.9496 341.957 52.9496 341.516C52.9496 341.076 53.07 340.644 53.2978 340.267C53.2978 339.151 53.1646 338.001 53.0146 336.818C52.7814 336.463 52.624 336.064 52.5523 335.645C52.4806 335.227 52.4962 334.798 52.5981 334.386V334.302C52.3815 333.153 52.1483 332.003 51.9151 330.87C51.5212 330.196 51.3412 329.417 51.3986 328.638C50.349 324.256 49.3494 320.675 49.7326 319.892C49.9926 319.499 50.3913 319.219 50.8488 319.109C50.5656 318.276 50.2657 317.443 49.8825 316.493L44.2681 302.615C45.1151 302.699 45.966 302.738 46.8171 302.732L47.7001 304.631C49.8307 309.181 51.6888 313.854 53.2645 318.625L52.5148 319.408C50.9654 321.074 51.915 324.29 52.5148 326.322C53.1645 328.688 53.6477 332.22 54.1808 334.652C55.3115 339.213 55.5323 343.951 54.8306 348.597C53.9642 353.711 51.6985 358.01 49.8326 362.741C49.3344 363.744 49.0491 364.838 48.9946 365.957C48.9402 367.075 49.1177 368.192 49.516 369.238C50.7384 371.449 52.5266 373.295 54.6973 374.586C53.011 373.689 51.4852 372.518 50.1824 371.121Z" fill="white"/>
<path d="M111.924 444.675C110.918 444.548 109.935 444.272 109.009 443.859C107.089 442.714 105.45 441.154 104.211 439.294V439.21C103.627 438.596 103.184 437.863 102.911 437.061C102.918 437.023 102.918 436.983 102.911 436.945C102.789 436.57 102.7 436.185 102.645 435.795C102.162 432.33 103.978 428.248 105.594 425.799C107.313 423.333 108.829 420.731 110.125 418.019L110.008 418.102L109.642 418.952C109.573 417.993 109.838 417.039 110.392 416.253C110.538 416.038 110.739 415.865 110.975 415.753C111.446 414.259 111.813 412.733 112.074 411.188L111.924 411.938C111.765 411.524 111.721 411.074 111.797 410.637C111.873 410.2 112.067 409.791 112.358 409.456C112.507 408.323 112.596 407.183 112.624 406.04C112.452 405.646 112.363 405.221 112.363 404.791C112.363 404.361 112.452 403.935 112.624 403.541C112.624 402.375 112.624 401.209 112.491 400.043C112.211 399.321 112.159 398.53 112.341 397.777C112.008 393.279 111.574 389.58 112.074 388.864C112.409 388.506 112.868 388.291 113.357 388.264C113.091 386.315 112.724 384.099 112.258 381.467C111.791 378.835 111.158 376.086 110.475 373.337C111.434 373.775 112.433 374.121 113.457 374.37C113.774 376.036 114.04 377.868 114.307 379.618C114.707 382.383 115.156 385.132 115.473 388.148C115.02 388.51 114.666 388.981 114.445 389.517C114.224 390.053 114.142 390.637 114.207 391.213C114.207 392.079 114.323 393.096 114.373 393.945C114.523 395.611 114.723 397.277 114.79 398.843C115.319 405.588 114.317 412.366 111.858 418.669C109.525 424.2 104.694 429.731 105.327 436.062C105.694 440.26 108.459 442.926 111.924 444.675Z" fill="white"/>
<path d="M97.8133 98.5968C91.1493 105.677 80.0371 115.257 69.1748 126.019C69.1748 126.019 47.1669 102.479 44.7846 97.5806C43.2019 94.2486 43.2019 92.0328 43.5517 86.5183C43.8229 81.8082 44.9935 77.1936 47.0003 72.9237C48.4164 70.4247 45.0677 69.8916 41.5858 72.5239C38.1039 75.1562 38.6037 77.3053 37.1043 80.3541C35.6049 83.4029 34.2721 82.6365 32.8227 80.1708C31.3733 77.7052 24.6259 65.3768 22.0603 61.6949C19.4946 58.013 17.0623 58.0963 15.7962 59.3625C15.0964 60.0789 16.3626 62.2447 19.2781 67.8424C22.1936 73.4402 25.5422 78.2883 25.1424 78.5048C24.7426 78.7214 21.6438 73.5068 17.9453 68.2589C14.53 63.4275 12.4808 60.9785 9.96516 60.5787C7.1163 60.1289 6.43324 62.2447 7.04966 63.0111C9.93174 66.6432 12.6124 70.4307 15.0797 74.3565C16.5788 76.5288 17.9099 78.8123 19.0615 81.1871C18.7283 81.6536 15.9627 77.8551 11.8144 73.8234C8.04924 70.1249 5.78349 68.3589 2.91797 69.0586C2.31821 69.2086 1.40191 69.8083 1.46855 70.3248C1.60183 71.5077 4.80053 74.2232 6.59981 76.2058C9.19877 79.038 9.51532 79.1879 11.3979 81.437C12.6807 82.9864 14.3134 85.0189 14.0968 85.2855C13.8802 85.552 6.98299 79.7377 4.20077 79.0713C1.80173 78.4882 -0.230767 79.3712 1.46855 81.4037C3.16787 83.4362 12.7974 93.2323 16.3126 97.3473C19.8279 101.462 25.359 106.794 28.5744 111.092C31.7897 115.39 37.1876 125.503 43.9682 135.915C49.566 144.495 55.7135 153.025 58.1792 155.907C65.6096 164.47 70.8408 160.905 81.0867 153.708C92.6321 145.511 108.326 129.484 111.075 126.069L123.453 84.8856C112.941 86.3184 109.442 86.4017 97.8133 98.5968Z" fill="#FFA8A7"/>
<path d="M122.237 84.4191C118.205 85.0022 109.709 85.7186 103.311 92.0827C96.9137 98.4469 78.1879 116.956 78.1879 116.956C78.1879 116.956 83.3025 118.389 89.9498 126.569C94.0982 131.65 96.4806 141.063 96.4806 141.063L111.874 126.602L122.237 84.4191Z" fill="#128A5C"/>
<path d="M122.237 84.4191C118.205 85.0022 109.709 85.7186 103.311 92.0827C96.9137 98.4469 78.1879 116.956 78.1879 116.956" fill="#128A5C"/>
<path d="M122.237 84.4191C117.621 85.0241 113.143 86.41 108.992 88.5175C106.988 89.6276 105.154 91.0189 103.544 92.6492L98.5464 97.6472C95.2144 100.979 91.8824 104.211 88.4671 107.427C85.0518 110.642 81.6531 113.857 78.1379 116.973C81.2866 113.491 84.5353 110.109 87.784 106.744C91.0327 103.378 94.448 100.08 97.6634 96.7475L102.661 91.8495C104.349 90.1441 106.308 88.731 108.459 87.6678C110.575 86.6175 112.814 85.8341 115.123 85.3354C117.471 84.8684 119.848 84.5623 122.237 84.4191Z" fill="white"/>
<path d="M69.1748 126.019C67.1517 128.213 65.6124 130.807 64.6566 133.635C63.7009 136.462 63.3501 139.458 63.627 142.429C62.4394 139.287 62.122 135.882 62.7085 132.575C63.295 129.267 64.7635 126.179 66.959 123.637L69.1748 126.019Z" fill="#F28F8F"/>
<path d="M33.3892 120.788C33.3892 120.788 29.1408 114.457 26.975 111.175C24.0025 106.91 20.764 102.837 17.2789 98.98L16.0461 97.5472C14.0136 95.2148 10.0818 91.1165 6.61652 87.5512C4.05088 84.869 1.83509 82.5532 1.08539 81.6869C0.33569 80.8206 0.269058 79.8876 0.468978 79.4378C0.72784 79.0522 1.09037 78.7475 1.5148 78.5588C1.93924 78.3702 2.40831 78.3053 2.86802 78.3716C3.36207 78.377 3.85392 78.4385 4.33411 78.5548C6.23335 79.0213 9.63198 81.487 12.131 83.3029L12.6641 83.6861C12.2809 83.2029 11.7645 82.5699 10.9981 81.7369C9.84857 80.3541 9.3321 79.771 8.43246 78.888C7.88268 78.3216 7.19962 77.6219 6.20002 76.5223C5.6669 75.9559 5.03383 75.3394 4.38409 74.7063C2.28493 72.6572 1.05209 71.3743 0.902155 70.3914C0.752215 69.4085 2.06833 68.7254 2.75139 68.5921C3.19657 68.4721 3.65655 68.4161 4.11752 68.4255C6.56654 68.4255 8.6657 70.0915 12.181 73.4235C14.0635 75.2561 15.6962 77.0554 16.8791 78.4215L17.3622 78.9713C16.7625 77.9217 15.8961 76.5056 14.68 74.6397C12.4456 71.0957 10.0208 67.6754 7.41622 64.3938L6.61652 63.3776C6.42705 63.0971 6.31895 62.7695 6.30425 62.4314C6.28955 62.0932 6.36883 61.7575 6.53324 61.4616C6.79954 60.9933 7.19682 60.613 7.67628 60.3673C8.15574 60.1217 8.6965 60.0214 9.23215 60.0789C9.4982 60.0555 9.76575 60.0555 10.0318 60.0789C12.6974 60.4954 14.7632 62.8444 18.3618 67.9424C19.0782 68.9253 19.7613 69.9249 20.411 70.8746C19.8945 69.9583 19.3781 69.0086 18.8616 68.0423L17.9287 66.2597C15.3964 61.495 14.5966 59.8956 15.4463 58.996C15.7396 58.6989 16.0902 58.4645 16.4768 58.307C16.8634 58.1494 17.278 58.0721 17.6954 58.0797C18.8283 58.0797 20.5943 58.6628 22.5102 61.4117C24.4261 64.1606 28.8243 71.8742 31.4399 76.489C32.3062 78.0217 32.9893 79.2212 33.3558 79.821C34.2888 81.4037 34.9052 81.7369 35.2384 81.7369C35.5716 81.7369 35.8382 81.387 36.3879 79.9209C36.7878 78.8713 37.071 77.9217 37.3875 77.0388C38.0666 74.9877 39.2938 73.1614 40.9361 71.7575C42.1102 70.6148 43.6641 69.9446 45.301 69.875C45.7733 69.8424 46.2461 69.9309 46.6747 70.132C47.1033 70.3332 47.4734 70.6404 47.7501 71.0245C47.9213 71.3488 48.0023 71.7131 47.9847 72.0794C47.9671 72.4457 47.8516 72.8006 47.6501 73.107C45.6607 77.2871 44.5008 81.8133 44.2348 86.435C43.8849 91.9328 43.835 93.8154 45.3677 96.9308C46.8671 99.4964 51.6818 105.644 51.7318 105.711L51.8984 105.927L51.7984 106.194C51.7156 106.423 51.6154 106.646 51.4986 106.86C49.9228 110.169 47.6608 113.104 44.863 115.471C42.0652 117.838 38.7957 119.582 35.2717 120.588C34.7903 120.742 34.3009 120.87 33.8057 120.971H33.4724L33.3892 120.788Z" fill="black"/>
<path d="M33.4558 79.8376C33.8791 80.5109 34.4485 81.0803 35.1218 81.5036C35.7382 81.8535 35.8548 80.7206 36.138 80.0375C36.6006 78.4673 37.157 76.9263 37.804 75.4227C38.5482 73.9273 39.605 72.6092 40.9028 71.5576C41.5169 70.9886 42.2386 70.548 43.0253 70.2619C43.8121 69.9758 44.6481 69.8499 45.4843 69.8916C43.906 70.1049 42.4482 70.8515 41.3526 72.0074C40.2091 73.0849 39.262 74.3533 38.5538 75.7559C37.8874 77.1553 37.4375 78.7547 36.8878 80.2374C36.7212 80.604 36.5712 80.9705 36.3713 81.3537C36.2618 81.5913 36.0813 81.7892 35.8548 81.9201C35.7301 81.9704 35.5949 81.9891 35.4612 81.9746C35.3275 81.9601 35.1995 81.9127 35.0885 81.8368C34.3695 81.3346 33.8042 80.6424 33.4558 79.8376Z" fill="white"/>
<path d="M17.3955 78.9047C16.1793 77.2387 15.0798 75.5727 13.9302 73.9067L10.4649 68.9087C9.29873 67.2427 8.09924 65.66 6.89972 64.0273L6.44986 63.4275C6.2746 63.1863 6.16032 62.9062 6.1167 62.6112C6.06183 62.3231 6.066 62.027 6.129 61.7406C6.192 61.4542 6.31253 61.1836 6.48322 60.9452C6.80599 60.5287 7.23385 60.2058 7.72285 60.0096C8.21185 59.8134 8.74431 59.7511 9.26541 59.829C8.7803 59.8271 8.30269 59.9484 7.87726 60.1815C7.45183 60.4146 7.09254 60.7519 6.83306 61.1618C6.61211 61.5507 6.54101 62.0069 6.63315 62.4446C6.67636 62.65 6.77418 62.8399 6.91634 62.9944L7.41617 63.5775C8.71565 65.0935 9.96512 66.7095 11.1313 68.3422C13.4837 71.6994 15.5778 75.2304 17.3955 78.9047Z" fill="white"/>
<path d="M12.6641 83.6361L9.06553 79.9042C8.48242 79.2712 7.86601 78.7047 7.24959 78.105L5.43366 76.289C4.23414 75.0895 2.98465 73.9066 1.85177 72.5738C1.19298 71.9159 0.781094 71.051 0.685547 70.1248C0.738464 69.8886 0.839794 69.666 0.983178 69.471C1.12656 69.276 1.30888 69.1129 1.51855 68.9919C1.8922 68.7548 2.31277 68.6013 2.75137 68.5421C2.00167 68.842 1.16867 69.4584 1.08537 70.2081C1.00207 70.9578 1.78509 71.5576 2.33487 72.1573C3.50107 73.3735 4.78393 74.5064 5.96679 75.7725C7.14965 77.0387 8.24919 78.3049 9.38207 79.621C10.5149 80.9372 11.6478 82.2533 12.6641 83.6361Z" fill="white"/>
<path d="M33.3891 120.788L25.309 109.343C22.5268 105.594 19.4614 102.079 16.3793 98.5635C13.2972 95.0482 10.0318 91.7162 6.88305 88.2676L2.15161 83.0697L0.985392 81.7536C0.569233 81.2891 0.307339 80.707 0.235722 80.0876C0.22293 79.7793 0.301458 79.4741 0.461513 79.2103C0.621568 78.9465 0.855979 78.7358 1.13533 78.6048C1.65846 78.3711 2.22893 78.2627 2.80133 78.2883C2.22205 78.2868 1.65083 78.4239 1.13533 78.6881C0.889278 78.8193 0.688061 79.0211 0.557452 79.2674C0.426844 79.5138 0.372796 79.7936 0.402282 80.0709C0.552222 81.2038 1.63516 81.9202 2.41818 82.7698L7.29955 87.7678C10.5482 91.0998 13.7969 94.5151 16.9623 97.9637C20.1277 101.412 23.0932 105.061 25.7755 108.909C28.4577 112.758 30.9068 116.823 33.3891 120.788Z" fill="white"/>
<path d="M30.2404 85.1855C28.8076 91.9494 32.9393 99.2632 35.7548 100.763C31.5399 100.363 26.0421 92.3493 30.2404 85.1855Z" fill="#37474F"/>
<path d="M46.0174 98.4135C46.9504 99.763 42.4855 105.877 36.7545 108.226L40.503 113.657C40.503 113.657 48.0333 110.859 50.6656 104.844C51.3486 103.678 50.3157 102.512 48.6164 100.196C47.7269 98.8549 46.7705 97.5594 45.7508 96.3143C45.6138 96.2355 45.4545 96.2041 45.2978 96.2252C45.1411 96.2463 44.9958 96.3187 44.8845 96.431C45.1777 97.1366 45.5583 97.8027 46.0174 98.4135Z" fill="#37474F"/>
<path d="M42.1356 109.576C42.1323 109.832 42.0533 110.082 41.9086 110.293C41.7638 110.505 41.5597 110.669 41.322 110.764C41.0843 110.86 40.8236 110.884 40.5726 110.832C40.3216 110.78 40.0916 110.654 39.9115 110.472C39.7315 110.29 39.6093 110.058 39.5605 109.807C39.5117 109.555 39.5384 109.294 39.6372 109.058C39.7361 108.822 39.9026 108.62 40.116 108.477C40.3293 108.335 40.5799 108.26 40.8362 108.26C41.0082 108.26 41.1785 108.294 41.3373 108.36C41.4961 108.426 41.6401 108.524 41.761 108.646C41.8819 108.768 41.9772 108.914 42.0415 109.073C42.1058 109.233 42.1378 109.404 42.1356 109.576Z" fill="#128A5C"/>
<path d="M20.3943 70.9079L24.526 77.2553L16.2626 62.8611L20.3943 70.9079Z" fill="#37474F"/>
<path d="M13.5304 88.8007C13.464 88.8002 13.3988 88.7832 13.3406 88.7512C13.2824 88.7192 13.2331 88.6732 13.1972 88.6174C10.9028 85.7172 8.21713 83.1493 5.21703 80.9872C5.17198 80.9556 5.13364 80.9154 5.10421 80.8689C5.07477 80.8225 5.05483 80.7707 5.04554 80.7164C5.03624 80.6622 5.03778 80.6067 5.05006 80.5531C5.06234 80.4995 5.08511 80.4488 5.11707 80.404C5.14864 80.359 5.18882 80.3207 5.23528 80.2912C5.28175 80.2618 5.33359 80.2418 5.38781 80.2325C5.44202 80.2233 5.4975 80.2248 5.55111 80.2371C5.60473 80.2494 5.65542 80.2721 5.70018 80.3041C8.78698 82.5164 11.5416 85.1588 13.8802 88.151C13.9122 88.1957 13.935 88.2464 13.9473 88.3C13.9595 88.3536 13.9611 88.4091 13.9518 88.4633C13.9425 88.5175 13.9225 88.5694 13.8931 88.6159C13.8637 88.6623 13.8253 88.7025 13.7802 88.734C13.7049 88.7794 13.6183 88.8025 13.5304 88.8007Z" fill="#37474F"/>
<path d="M16.6958 82.8697C16.6342 82.8661 16.5741 82.8493 16.5195 82.8206C16.4649 82.7919 16.4172 82.7518 16.3793 82.7031C13.1179 78.5733 9.57174 74.6764 5.76685 71.0411V70.9578C5.68947 70.8772 5.6463 70.7697 5.6463 70.6579C5.6463 70.5462 5.68947 70.4387 5.76685 70.3581C5.84932 70.2843 5.95612 70.2435 6.06677 70.2435C6.17741 70.2435 6.28416 70.2843 6.36663 70.3581H6.44991C10.2786 74.0544 13.8521 78.0064 17.1457 82.1867C17.1776 82.2314 17.2004 82.2821 17.2127 82.3357C17.2249 82.3893 17.2265 82.4448 17.2172 82.499C17.2079 82.5533 17.188 82.6051 17.1585 82.6516C17.1291 82.698 17.0907 82.7382 17.0457 82.7698C16.9466 82.8474 16.821 82.8833 16.6958 82.8697Z" fill="#37474F"/>
<path d="M21.3773 78.5881C21.3015 78.5834 21.2281 78.5595 21.164 78.5187C21.0999 78.4779 21.0472 78.4216 21.0108 78.3549C18.0833 73.0012 14.7703 67.8675 11.0981 62.9944C11.0218 62.9165 10.979 62.8118 10.979 62.7028C10.979 62.5938 11.0218 62.4891 11.0981 62.4113C11.1891 62.3441 11.3028 62.3152 11.4149 62.3307C11.527 62.3463 11.6285 62.4051 11.6978 62.4946C15.3992 67.4112 18.74 72.5894 21.6938 77.9884C21.7394 78.0879 21.744 78.2014 21.7066 78.3043C21.6692 78.4072 21.5928 78.4912 21.4939 78.5381C21.4576 78.5602 21.4184 78.5771 21.3773 78.5881Z" fill="#37474F"/>
<path d="M27.7747 75.7226C27.6861 75.7156 27.6018 75.6814 27.5332 75.6248C27.4647 75.5681 27.4152 75.4918 27.3915 75.4061C25.5089 70.5266 23.16 65.8402 20.3777 61.4117C20.3136 61.3211 20.2881 61.2088 20.3069 61.0994C20.3256 60.9901 20.3871 60.8926 20.4776 60.8286C20.5682 60.7645 20.6805 60.739 20.7899 60.7578C20.8992 60.7765 20.9967 60.838 21.0607 60.9285C23.9013 65.4359 26.2897 70.2127 28.1912 75.1895C28.2222 75.2955 28.2097 75.4095 28.1565 75.5064C28.1034 75.6032 28.014 75.675 27.908 75.706L27.7747 75.7226Z" fill="#37474F"/>
<path d="M37.4708 84.5358C37.4171 84.5239 37.3663 84.5016 37.3212 84.47C37.2762 84.4385 37.2378 84.3983 37.2084 84.3518C37.179 84.3053 37.159 84.2535 37.1497 84.1993C37.1404 84.1451 37.142 84.0896 37.1542 84.036C37.6707 81.9035 39.52 74.7063 41.5858 72.1074C41.6637 72.0311 41.7684 71.9883 41.8774 71.9883C41.9864 71.9883 42.0911 72.0311 42.1689 72.1074C42.2463 72.188 42.2895 72.2955 42.2895 72.4073C42.2895 72.5191 42.2463 72.6265 42.1689 72.7072C40.2197 75.1562 38.4038 82.2034 37.904 84.3692C37.8564 84.4368 37.7899 84.4887 37.7128 84.5184C37.6356 84.548 37.5514 84.5541 37.4708 84.5358Z" fill="#37474F"/>
<path d="M45.7175 70.0582C46.2673 70.8412 45.7175 72.2073 44.4014 73.0903C43.0853 73.9733 41.6525 74.0399 41.0694 73.2403C40.4863 72.4406 41.0694 71.0911 42.3689 70.2081C43.6684 69.3252 45.1178 69.2752 45.7175 70.0582Z" fill="#128A5C"/>
<path opacity="0.5" d="M45.7175 70.0582C46.2673 70.8412 45.7175 72.2073 44.4014 73.0903C43.0853 73.9733 41.6525 74.0399 41.0694 73.2403C40.4863 72.4406 41.0694 71.0911 42.3689 70.2081C43.6684 69.3252 45.1178 69.2752 45.7175 70.0582Z" fill="white"/>
<path opacity="0.5" d="M43.8683 69.5584C43.3317 69.6775 42.8227 69.898 42.3689 70.2081C41.1027 71.0911 40.5196 72.4573 41.0694 73.2403C41.1657 73.3704 41.288 73.4791 41.4285 73.5594C41.5691 73.6397 41.7248 73.6899 41.8858 73.7068C42.3779 73.6285 42.8488 73.4508 43.2699 73.1844C43.691 72.918 44.0533 72.5685 44.3348 72.1574C45.2344 70.7746 44.9679 69.6417 43.8683 69.5584Z" fill="white"/>
<path d="M17.3955 57.8964C18.0786 57.2133 19.5114 57.5632 20.5943 58.6628C21.6772 59.7623 22.0103 61.2117 21.3273 61.8781C20.6442 62.5445 19.2115 62.2114 18.1119 61.1118C17.0123 60.0122 16.6292 58.5795 17.3955 57.8964Z" fill="#128A5C"/>
<path opacity="0.5" d="M17.3955 57.8964C18.0786 57.2133 19.5114 57.5632 20.5943 58.6628C21.6772 59.7623 22.0103 61.2117 21.3273 61.8781C20.6442 62.5445 19.2115 62.2114 18.1119 61.1118C17.0123 60.0122 16.6292 58.5795 17.3955 57.8964Z" fill="white"/>
<path opacity="0.5" d="M21.0274 61.4116C20.5776 61.6282 19.628 61.5782 18.6284 60.5953C17.6288 59.6124 17.1456 57.7964 17.9953 57.5798C17.7382 57.6044 17.4972 57.7161 17.3123 57.8964C16.6292 58.5794 16.9457 60.0122 18.0286 61.1118C19.1115 62.2113 20.5609 62.5612 21.244 61.8781C21.4224 61.6704 21.5426 61.4192 21.5924 61.15C21.6421 60.8807 21.6197 60.6031 21.5272 60.3454C21.5649 60.553 21.537 60.7672 21.4475 60.9583C21.3579 61.1493 21.2111 61.3078 21.0274 61.4116Z" fill="white"/>
<path d="M8.0826 59.5124C8.76566 58.846 10.2151 59.1792 11.298 60.2788C12.3809 61.3784 12.7141 62.8278 12.031 63.5108C11.3479 64.1939 9.89854 63.844 8.81564 62.7445C7.73274 61.6449 7.39954 60.1955 8.0826 59.5124Z" fill="#128A5C"/>
<path opacity="0.5" d="M8.0826 59.5124C8.76566 58.846 10.2151 59.1792 11.298 60.2788C12.3809 61.3784 12.7141 62.8278 12.031 63.5108C11.3479 64.1939 9.89854 63.844 8.81564 62.7445C7.73274 61.6449 7.39954 60.1955 8.0826 59.5124Z" fill="white"/>
<path opacity="0.5" d="M12.3975 62.2447C12.3958 62.4354 12.3479 62.623 12.2579 62.7912C12.168 62.9595 12.0387 63.1035 11.8811 63.2109C11.3979 63.4275 10.7315 63.3942 9.53202 62.2113C8.3325 61.0285 8.46579 59.4125 9.28213 59.2292C9.08146 59.1895 8.87455 59.1943 8.67594 59.2433C8.47733 59.2922 8.29185 59.3841 8.13259 59.5124C7.44953 60.1955 7.78273 61.6283 8.86563 62.7445C9.94853 63.8607 11.3813 64.1772 12.081 63.5108C12.2269 63.3379 12.3312 63.1339 12.3861 62.9144C12.4409 62.695 12.4449 62.4659 12.3975 62.2447Z" fill="white"/>
<path d="M2.05168 68.0423C2.60146 67.2593 4.0842 67.3426 5.38368 68.2256C6.68316 69.1085 7.21627 70.4747 6.66649 71.2577C6.11671 72.0407 4.63397 71.9741 3.33449 71.0744C2.03501 70.1748 1.5019 68.8253 2.05168 68.0423Z" fill="#128A5C"/>
<path opacity="0.5" d="M2.05168 68.0423C2.60146 67.2593 4.0842 67.3426 5.38368 68.2256C6.68316 69.1085 7.21627 70.4747 6.66649 71.2577C6.11671 72.0407 4.63397 71.9741 3.33449 71.0744C2.03501 70.1748 1.5019 68.8253 2.05168 68.0423Z" fill="white"/>
<path opacity="0.5" d="M6.6332 71.2577C6.13247 71.4315 5.59146 71.4531 5.0785 71.3196C4.56553 71.1862 4.10359 70.9038 3.75101 70.508C2.55149 69.4584 2.21828 67.959 2.7514 67.5925C2.47363 67.6582 2.22672 67.8169 2.0517 68.0423C1.50192 68.8254 2.05169 70.1915 3.33451 71.0745C4.61733 71.9574 6.08343 72.0574 6.6332 71.2577Z" fill="white"/>
<path d="M1.73518 77.6052C2.30162 76.8055 3.7677 76.8888 5.06718 77.7885C6.36666 78.6881 6.91642 80.0375 6.34998 80.8206C5.78354 81.6036 4.33412 81.5203 3.01798 80.6373C1.70184 79.7543 1.1854 78.4549 1.73518 77.6052Z" fill="#128A5C"/>
<path opacity="0.5" d="M1.73518 77.6052C2.30162 76.8055 3.7677 76.8888 5.06718 77.7885C6.36666 78.6881 6.91642 80.0375 6.34998 80.8206C5.78354 81.6036 4.33412 81.5203 3.01798 80.6373C1.70184 79.7543 1.1854 78.4549 1.73518 77.6052Z" fill="white"/>
<path opacity="0.5" d="M6.31662 80.9372C6.41056 80.8153 6.47343 80.6723 6.49986 80.5207C6.49986 80.5207 5.8168 81.2704 4.3174 80.6373C2.818 80.0042 1.202 77.7385 2.93464 77.172C2.70473 77.1565 2.47454 77.1986 2.26505 77.2946C2.05556 77.3906 1.87342 77.5375 1.73512 77.7218C1.18534 78.5048 1.73512 79.871 3.0346 80.7539C4.33408 81.6369 5.73352 81.6702 6.31662 80.9372Z" fill="white"/>
<path opacity="0.3" d="M77.0217 143.029C66.9091 150.826 65.6429 152.558 56.0967 144.079C49.0108 137.513 42.3343 130.52 36.1047 123.137C38.4371 127.052 41.1027 131.467 43.9849 135.915C49.5826 144.495 55.7302 153.025 58.1959 155.907C65.6262 164.47 70.8575 160.905 81.1034 153.708C86.4764 149.745 91.6007 145.455 96.4473 140.863V141.08L111.841 126.619L116.373 108.176L117.306 105.078C106.993 115.29 84.6853 137.115 77.0217 143.029Z" fill="black"/>
<path d="M108.359 115.473C108.992 93.4488 122.237 84.4191 122.237 84.4191C122.237 84.4191 133.632 81.7702 153.341 83.103C164.161 83.997 174.887 85.7857 185.412 88.4508C183.146 94.0985 181.996 113.707 183.213 120.738C184.429 127.768 193.059 134.299 193.059 134.299C195.857 156.107 199.189 165.32 198.623 177.615C198.472 188.27 197.637 198.904 196.124 209.452C165.869 222.497 118.672 208.153 104.028 188.494C109.958 158.623 107.526 144.545 108.359 115.473Z" fill="#37474F"/>
<path d="M114.024 94.9816C116.019 90.9416 118.813 87.3484 122.237 84.4191C114.873 89.8003 110.358 98.4802 108.559 107.41C107.793 111.9 107.431 116.45 107.476 121.005C107.376 125.536 107.326 130.051 107.326 134.582C107.426 143.612 107.509 152.625 107.026 161.622C106.826 166.12 106.427 170.618 105.877 175.1C105.327 179.581 104.694 184.029 104.028 188.428C106.138 179.615 107.57 170.653 108.309 161.622C109.076 152.592 108.959 143.512 109.009 134.482C109.009 129.968 109.009 125.469 109.009 120.955C108.953 116.497 109.232 112.042 109.842 107.627C110.564 103.218 111.975 98.9511 114.024 94.9816Z" fill="#128A5C"/>
<path opacity="0.5" d="M114.024 94.9816C116.019 90.9416 118.813 87.3484 122.237 84.4191C114.873 89.8003 110.358 98.4802 108.559 107.41C107.793 111.9 107.431 116.45 107.476 121.005C107.376 125.536 107.326 130.051 107.326 134.582C107.426 143.612 107.509 152.625 107.026 161.622C106.826 166.12 106.427 170.618 105.877 175.1C105.327 179.581 104.694 184.029 104.028 188.428C106.138 179.615 107.57 170.653 108.309 161.622C109.076 152.592 108.959 143.512 109.009 134.482C109.009 129.968 109.009 125.469 109.009 120.955C108.953 116.497 109.232 112.042 109.842 107.627C110.564 103.218 111.975 98.9511 114.024 94.9816Z" fill="white"/>
<path d="M163.004 70.6913C167.685 57.18 189.044 35.8552 171.201 19.3618C169.818 8.81604 157.056 6.30038 148.276 5.18416C139.343 5.03306 130.461 3.80808 121.82 1.53561C113.79 -1.79639 113.957 8.93266 116.639 13.6474C108.742 11.8815 110.408 17.8124 113.407 22.5106C107.16 27.5086 116.972 31.6236 120.188 34.7057L163.004 70.6913Z" fill="#128A5C"/>
<path opacity="0.3" d="M115.206 29.8909C114.264 28.8768 113.374 27.8147 112.541 26.7089C111.658 25.0429 112.941 23.7767 114.007 22.7771C114.523 22.3106 114.473 22.194 114.19 21.7275C113.207 20.1615 110.991 17.1794 112.524 15.2968C113.607 13.8973 116.156 14.3472 117.672 14.6804C118.622 14.8969 118.189 13.9806 117.755 13.2809C116.794 11.5247 116.226 9.58065 116.089 7.5832C115.992 6.33733 116.122 5.08412 116.473 3.88468C116.769 2.71807 117.457 1.68873 118.422 0.969177C113.94 1.71888 114.423 9.69901 116.639 13.6141C109.792 12.0814 110.142 16.3297 112.291 20.5613L112.841 21.411C113.041 21.7609 113.257 22.1107 113.474 22.4439C109.892 25.2928 111.591 27.8584 114.307 30.1242C114.537 30.2268 114.777 30.3049 115.023 30.3574C115.19 30.4907 115.323 30.0575 115.206 29.8909Z" fill="white"/>
<path opacity="0.3" d="M144.395 22.0274C141.063 21.4776 137.647 21.7775 134.399 20.628C132.891 20.179 131.529 19.3399 130.45 18.1956C128.384 15.7299 131.683 14.7636 133.499 14.647C133.866 14.647 133.949 13.814 133.599 13.7141C131.322 13.0995 129.157 12.1266 127.185 10.8319C125.302 9.61569 123.087 7.91638 122.553 5.6173C122.553 5.46736 122.387 5.6173 122.403 5.73392C122.575 6.85162 122.993 7.91722 123.627 8.85364C124.261 9.79006 125.095 10.5739 126.069 11.1484C127.647 12.3514 129.4 13.3064 131.267 13.9806C130.811 14.0765 130.385 14.2769 130.021 14.5661C129.656 14.8552 129.364 15.2251 129.167 15.6466C128.401 17.3959 129.667 19.1285 131 20.1615C132.705 21.3773 134.665 22.1866 136.731 22.5272C139.207 23.1148 141.779 23.1715 144.278 22.6938C144.495 22.7105 144.711 22.0774 144.395 22.0274Z" fill="white"/>
<path d="M119.271 21.2777C117.289 23.4102 115.056 33.3729 114.523 50.2161C113.99 67.0594 119.255 71.7075 124.519 74.1232C127.468 75.4894 131.6 75.6559 137.214 75.1062L137.364 83.6694C134.032 90.3334 134.032 95.3314 137.531 101.396C156.073 96.1311 162.437 89.7337 164.037 86.1018L164.253 63.061C164.253 63.061 166.203 66.6762 172.084 62.1947C176.915 58.4961 178.914 51.8488 175.582 48.0004C174.683 47.0896 173.586 46.3984 172.376 45.9804C171.166 45.5623 169.876 45.4287 168.607 45.5898C167.337 45.751 166.121 46.2026 165.054 46.9095C163.987 47.6165 163.097 48.5598 162.454 49.6663C162.454 49.6663 158.939 50.7826 156.49 45.1515C154.824 41.3363 153.508 36.5549 153.558 24.6597C136.648 29.8409 120.038 24.9929 119.271 21.2777Z" fill="#FFA8A7"/>
<path d="M119.588 68.8253C116.489 64.2438 116.556 57.7465 116.339 52.4153C116.153 46.903 116.376 41.3845 117.006 35.9052C117.306 33.1729 117.722 30.4574 118.255 27.7584C118.655 25.8259 119.188 23.8933 119.588 21.9608C119.445 21.7523 119.338 21.5215 119.271 21.2777C117.289 23.4102 115.056 33.3729 114.523 50.2161C113.99 67.0594 119.255 71.7075 124.519 74.1232C126.98 75.0999 129.623 75.5318 132.266 75.3894C127.468 74.8729 122.353 72.9903 119.588 68.8253Z" fill="white"/>
<path d="M140.68 58.4795L130.767 61.245C130.912 61.9122 131.191 62.5426 131.589 63.0974C131.987 63.6522 132.494 64.1196 133.08 64.4708C133.665 64.822 134.316 65.0496 134.993 65.1395C135.67 65.2294 136.358 65.1797 137.014 64.9935C138.35 64.5941 139.479 63.6918 140.162 62.4767C140.846 61.2616 141.031 59.8286 140.68 58.4795Z" fill="#B16668"/>
<path d="M134.815 65.0769C134.901 63.8304 135.473 62.6675 136.408 61.8386C137.342 61.0098 138.565 60.5812 139.813 60.6453C140.134 60.66 140.453 60.7103 140.763 60.7953C140.601 61.776 140.164 62.6907 139.504 63.4337C138.843 64.1767 137.986 64.7175 137.031 64.9936C136.308 65.1869 135.551 65.2153 134.815 65.0769Z" fill="#F28F8F"/>
<path d="M119.022 35.672L124.436 34.006C124.347 33.6579 124.19 33.3308 123.974 33.0435C123.758 32.7562 123.487 32.5143 123.178 32.3317C122.868 32.1491 122.526 32.0294 122.17 31.9793C121.814 31.9293 121.452 31.9499 121.104 32.0401C120.352 32.2543 119.713 32.754 119.324 33.4325C118.935 34.111 118.826 34.9146 119.022 35.672Z" fill="black"/>
<path d="M140.846 35.4554L145.977 37.8211C146.149 37.4961 146.252 37.1395 146.281 36.7731C146.31 36.4068 146.264 36.0384 146.145 35.6905C146.027 35.3427 145.838 35.0227 145.592 34.7502C145.345 34.4778 145.046 34.2585 144.711 34.1059C144.017 33.7909 143.228 33.7554 142.508 34.0067C141.789 34.258 141.193 34.7768 140.846 35.4554Z" fill="black"/>
<path d="M131.95 40.2035L131.7 55.614L123.303 54.4145L131.95 40.2035Z" fill="#F28F8F"/>
<path d="M137.198 75.1062C143.095 74.723 156.023 69.9083 158.206 65.2768C157.604 68.4035 155.812 71.1747 153.208 73.007C147.527 76.4723 137.214 78.6714 137.214 78.6714L137.198 75.1062Z" fill="#F28F8F"/>
<path d="M143.512 42.7358C143.573 43.4081 143.368 44.0775 142.941 44.6006C142.515 45.1238 141.9 45.4591 141.229 45.5347C140.903 45.5764 140.573 45.5521 140.256 45.4633C139.94 45.3745 139.645 45.223 139.389 45.0178C139.132 44.8127 138.92 44.558 138.764 44.269C138.608 43.98 138.511 43.6626 138.48 43.3356C138.432 42.6678 138.642 42.0071 139.067 41.4896C139.492 40.972 140.099 40.6369 140.763 40.5534C141.088 40.5068 141.419 40.5271 141.736 40.613C142.054 40.6988 142.35 40.8485 142.607 41.0528C142.864 41.257 143.077 41.5117 143.233 41.8011C143.388 42.0904 143.483 42.4085 143.512 42.7358Z" fill="black"/>
<path d="M124.186 40.6533C124.247 41.3256 124.042 41.995 123.616 42.5181C123.189 43.0413 122.574 43.3766 121.904 43.4522C121.579 43.4938 121.249 43.4694 120.934 43.3805C120.618 43.2915 120.324 43.1398 120.069 42.9344C119.814 42.7291 119.603 42.4743 119.449 42.1854C119.295 41.8964 119.2 41.5793 119.171 41.2531C119.115 40.5835 119.322 39.9184 119.748 39.3989C120.174 38.8794 120.786 38.5465 121.454 38.4709C121.778 38.4268 122.107 38.4489 122.422 38.5359C122.738 38.6229 123.032 38.773 123.287 38.977C123.543 39.1811 123.754 39.4349 123.909 39.723C124.063 40.0111 124.158 40.3276 124.186 40.6533Z" fill="black"/>
<path d="M156.373 36.6882C156.273 33.5395 145.261 32.6065 134.715 31.3237C124.169 30.0409 116.056 28.2916 113.757 30.3908C113.524 30.6073 109.858 33.3396 109.109 33.906C108.794 34.1393 108.561 34.4658 108.442 34.839C107.36 38.171 106.243 49.6164 108.326 52.3153C110.408 55.0142 122.537 55.7639 123.736 53.7814L125.319 51.1824C126.902 48.5835 127.735 47.2007 128.135 46.5176C128.529 46.5133 128.917 46.6185 129.255 46.8214C129.593 47.0243 129.869 47.3171 130.05 47.6672C130.585 48.5294 130.952 49.4845 131.133 50.4827C132.15 54.9476 131.85 55.2142 134.615 55.9305C137.381 56.6469 145.328 57.5965 147.593 56.7802C147.863 56.6812 148.116 56.5407 148.343 56.3637L153.125 52.7318C156.573 50.0995 156.473 39.6371 156.373 36.6882Z" fill="black"/>
<path d="M129.867 34.9723C118.288 33.5728 109.459 31.6403 108.392 34.839C107.326 38.0377 106.177 49.6164 108.276 52.3153C110.375 55.0143 122.487 55.7639 123.686 53.7814L128.101 46.5343C128.101 46.5343 130.084 46.0178 131.083 50.4827C132.083 54.9476 131.8 55.2142 134.565 55.9305C137.331 56.6469 145.278 57.5965 147.543 56.7802C151.792 55.1142 151.675 43.4522 151.575 40.3368C151.475 37.2214 140.463 36.2384 129.867 34.9723Z" fill="#128A5C"/>
<path d="M128.101 46.5343C128.37 46.5062 128.642 46.5396 128.896 46.632C129.15 46.7244 129.379 46.8732 129.567 47.0674C129.954 47.4444 130.275 47.8837 130.517 48.3669C130.941 49.3567 131.254 50.3903 131.45 51.449C131.624 52.4871 131.909 53.5035 132.299 54.4811C132.749 55.3808 133.966 55.5474 134.915 55.7973C136.985 56.2708 139.083 56.6103 141.196 56.8135C142.262 56.9135 143.312 56.9968 144.378 57.0301C145.44 57.1053 146.507 57.021 147.543 56.7802C145.458 57.2678 143.302 57.375 141.179 57.0968C139.042 56.9348 136.916 56.6399 134.815 56.2138C134.29 56.0832 133.772 55.9219 133.266 55.7306C132.711 55.5447 132.251 55.1504 131.983 54.6311C131.61 53.6216 131.337 52.5782 131.167 51.5156C131.006 50.4692 130.72 49.4458 130.317 48.4669C129.934 47.6172 129.234 46.4677 128.101 46.5343Z" fill="white"/>
<path d="M129.867 34.9722C126.535 34.6557 123.203 34.2225 119.871 33.7894C118.205 33.5894 116.539 33.4062 114.873 33.3062C113.239 33.1312 111.587 33.244 109.992 33.6394C108.326 34.006 108.209 36.0052 107.876 37.5712C107.591 39.2259 107.391 40.8941 107.276 42.5692C107.134 44.2312 107.101 45.9008 107.176 47.5672C107.113 49.2313 107.462 50.8852 108.192 52.3819C107.391 50.9093 106.967 49.2606 106.96 47.5839C106.86 45.9193 106.86 44.2504 106.96 42.5859C107.053 40.912 107.231 39.2439 107.493 37.5879C107.615 36.7508 107.788 35.9219 108.009 35.1055C108.137 34.6775 108.37 34.2884 108.687 33.974C109.005 33.6596 109.396 33.43 109.825 33.3062C111.463 32.928 113.153 32.8322 114.823 33.023C116.489 33.1563 118.155 33.3729 119.821 33.5895L129.867 34.9722Z" fill="white"/>
<path d="M144.461 55.4474C141.272 55.3837 138.096 55.0042 134.982 54.3145C133.549 53.9313 133.549 53.9313 133.049 51.5823L132.716 50.1162C131.7 45.5514 129.517 44.8516 128.301 44.8516C128.091 44.832 127.879 44.832 127.668 44.8516L127.018 45.0349L122.354 52.6985C121.099 53.0915 119.783 53.2497 118.472 53.165C113.957 53.165 110.142 51.9988 109.609 51.2324C108.176 49.3832 108.826 38.8207 109.975 35.2888C109.975 35.2888 110.225 34.6557 113.174 34.6724C116.579 34.8341 119.972 35.1901 123.336 35.7386L129.667 36.5716L132.849 36.9381C139.263 37.6878 148.976 38.8207 149.942 40.4367C150.142 48.2836 148.926 54.3812 146.927 55.1642C146.122 55.3695 145.29 55.4426 144.461 55.3808V55.4474Z" fill="#37474F"/>
<path d="M123.336 35.8052H123.02L108.859 48.0836C108.839 49.2383 109.096 50.381 109.609 51.4156C109.983 51.7613 110.434 52.0126 110.925 52.1487L128.801 36.6382L123.336 35.8052Z" fill="black"/>
<path d="M142.679 38.3043L131.9 47.6172C132.266 48.3989 132.54 49.2208 132.716 50.0662L133.049 51.5323C133.049 51.7989 133.149 52.0487 133.199 52.2653L148.01 39.4205C146.261 38.9263 144.479 38.5534 142.679 38.3043Z" fill="black"/>
<path d="M115.456 34.8557L109.025 40.3868C108.892 41.7529 108.792 43.2356 108.759 44.6351L119.521 35.3055C118.072 35.1056 116.689 34.9556 115.456 34.8557Z" fill="black"/>
<path d="M120.254 53.165L124.169 49.833L127.018 45.1682L127.668 44.9849C127.879 44.9653 128.091 44.9653 128.301 44.9849C128.726 44.9869 129.146 45.0777 129.534 45.2515L138.131 37.7878L134.082 37.288L115.756 53.1983C116.639 53.2983 117.555 53.3483 118.505 53.3649C119.171 53.2316 119.755 53.1983 120.254 53.165Z" fill="black"/>
<path d="M149.793 46.4843C149.892 45.3514 149.942 44.1186 149.959 42.8191L136.365 54.6144C137.348 54.7976 138.547 54.9809 139.846 55.1308L149.793 46.4843Z" fill="black"/>
<path opacity="0.9" d="M149.942 40.5034C148.976 38.8374 139.263 37.7545 132.849 37.0048L129.667 36.6383L123.336 35.8053C119.972 35.2568 116.579 34.9008 113.174 34.739C110.225 34.739 109.975 35.3554 109.975 35.3554C108.826 38.8874 108.176 49.4498 109.609 51.2991C110.087 51.7194 110.658 52.0218 111.275 52.182C108.559 51.1991 110.025 42.3526 110.708 39.687C111.391 37.0214 111.258 36.0385 126.735 37.5879C142.212 39.1373 146.844 39.5371 148.226 40.9199C149.467 42.6005 150.011 44.6957 149.743 46.7675C149.921 44.6846 149.988 42.5935 149.942 40.5034Z" fill="white"/>
<path opacity="0.5" d="M130.684 36.7549L129.601 36.6383L123.27 35.8053C119.905 35.2568 116.512 34.9008 113.107 34.739C110.158 34.739 109.908 35.3554 109.908 35.3554C108.759 38.8874 108.109 49.4498 109.542 51.2991C110.125 52.0654 113.89 53.1983 118.405 53.2316C119.717 53.3163 121.033 53.1582 122.287 52.7651L123.503 50.7493C124.053 49.5498 122.653 49.4331 121.837 49.4665C118.888 49.4665 117.455 50.2828 115.356 49C112.624 47.334 113.54 41.8029 115.573 40.3701C119.805 37.4213 121.77 35.9552 130.684 36.7549Z" fill="#128A5C"/>
<path opacity="0.3" d="M106.143 242.423L112.308 241.073L122.853 226.079C110.247 227.456 97.7693 229.824 85.5349 233.16C63.7603 238.924 56.4632 243.156 53.8809 248.72C51.2986 254.285 50.349 259.816 53.8809 276.459C57.4128 293.102 63.9936 301.266 66.3926 309.779C68.7916 318.292 73.9895 319.475 73.7563 324.623C73.5231 329.771 75.2057 334.436 75.4223 343.982C75.6389 353.528 67.6921 365.723 58.1126 367.439C48.5331 369.155 48.1166 361.325 48.1166 361.142C47.2503 364.724 47.2502 368.905 50.2324 371.138C51.7546 372.787 53.6277 374.074 55.7135 374.903C58.2792 375.553 62.011 375.869 70.2078 370.321C73.4838 368.216 76.2636 365.425 78.3548 362.14C80.446 358.855 81.7988 355.155 82.3196 351.296C83.0486 346.36 82.6441 341.324 81.1367 336.568C80.2537 332.903 81.0034 331.037 83.0693 326.489C84.6316 323.255 85.5429 319.745 85.7515 316.16C85.0581 314.244 83.7057 312.638 81.9364 311.628C79.5207 308.013 77.4715 307.813 75.2724 305.597C73.5231 303.781 73.3231 302.265 71.9404 302.865L72.2736 304.631L69.7913 291.52C70.0924 290.967 70.3059 290.371 70.4243 289.754C70.4243 289.487 68.3585 277.592 68.3585 277.592C68.3585 277.592 68.2085 277.975 67.892 278.608L63.627 251.719L67.2756 250.936L106.143 242.423ZM198.623 177.565C199.189 165.253 195.857 156.04 193.059 134.249C193.059 134.249 184.429 127.718 183.213 120.688C181.996 113.657 183.213 94.0319 185.412 88.4008C178.353 86.6514 171.207 85.2723 164.004 84.2692L164.153 67.8091C164.67 66.6929 165.27 65.5267 165.919 64.3272C167.136 64.6604 169.102 64.4438 172.034 62.2113C176.865 58.5128 178.864 51.8655 175.532 48.017C175.361 47.8066 175.171 47.6115 174.966 47.4339C179.097 37.971 180.514 28.025 171.167 19.3785C169.785 8.8327 157.023 6.31703 148.243 5.20081C143.495 4.98423 138.73 4.66769 133.999 4.05127C144.461 6.60025 153.608 10.9652 147.327 11.7482C154.924 16.2297 156.007 25.1595 141.646 26.7422C141.646 26.7422 146.86 27.7418 146.377 32.7731L141.796 36.7049C143.312 37.9541 144.473 39.5797 145.163 41.4188C145.853 43.2579 146.048 45.246 145.728 47.184C144.611 53.848 136.198 56.5636 136.198 56.5636C139.279 57.0794 142.405 57.2803 145.528 57.1633C147.31 60.1455 148.01 65.9265 146.127 69.4251C144.494 71.8335 142.171 73.6919 139.463 74.7563C146.311 73.3402 156.007 69.5584 158.106 65.2435C158.106 71.7409 157.806 79.5711 158.106 92.4159C155.057 99.8296 154.774 110.742 154.924 114.074C155.257 122.221 157.106 133.533 162.088 151.642C163.054 155.207 164.17 158.739 165.42 162.205C165.986 163.771 166.586 165.32 167.219 166.869C167.469 167.469 167.802 168.069 168.019 168.669C168.235 169.268 167.702 169.802 167.435 170.218C167.103 170.733 166.741 171.228 166.353 171.701C164.803 173.633 162.904 175.266 161.355 177.215C160.712 178.017 160.154 178.882 159.689 179.798C159.467 180.156 159.39 180.584 159.472 180.997C159.534 181.159 159.628 181.308 159.748 181.434C159.869 181.56 160.012 181.66 160.172 181.73C161.838 182.58 163.737 181.73 165.353 180.864L170.718 178.015L165.986 186.345C164.459 188.533 163.612 191.124 163.554 193.792C164.161 194.194 164.877 194.398 165.605 194.377C166.332 194.357 167.036 194.111 167.619 193.675C168.769 192.783 169.745 191.688 170.501 190.443C171.84 188.57 173.304 186.789 174.883 185.112C175.245 184.667 175.707 184.313 176.232 184.079C176.786 183.958 177.365 184.029 177.874 184.28C178.383 184.531 178.791 184.948 179.031 185.462C179.487 186.511 179.687 187.653 179.614 188.794L179.714 194.458C179.615 195.162 179.687 195.88 179.925 196.55C180.163 197.22 180.559 197.823 181.08 198.307C181.471 198.555 181.93 198.676 182.392 198.652C182.855 198.628 183.299 198.461 183.662 198.174C184.066 197.778 184.413 197.33 184.695 196.841C184.929 196.474 185.295 195.791 185.828 196.058C186.337 196.414 186.778 196.86 187.128 197.374C187.427 197.715 187.695 198.083 187.927 198.473C189.593 201.606 189.877 217.483 172.75 237.108C155.007 257.433 127.951 278.325 126.002 283.656C124.053 288.987 127.668 295.118 129.751 305.314C131.833 315.51 130.867 369.188 130.833 379.518C130.8 389.847 135.482 409.506 129.734 422.717C123.986 435.928 114.407 437.944 108.592 437.494C102.778 437.045 103.594 429.164 103.594 429.015C102.178 432.43 101.479 436.595 104.094 439.277C105.336 441.145 106.981 442.711 108.909 443.859C111.325 444.925 114.973 445.808 123.903 441.626C127.476 440.068 130.668 437.752 133.257 434.838C135.846 431.923 137.77 428.481 138.897 424.75C140.391 419.997 140.784 414.966 140.046 410.039C139.747 406.274 140.796 404.541 143.545 400.376C145.595 397.432 147.05 394.116 147.827 390.613C147.445 388.612 146.364 386.811 144.778 385.532C142.962 381.583 140.196 381.1 138.43 378.551C136.981 376.502 136.998 375.219 135.532 375.503L135.615 368.422C135.992 368.048 136.348 367.653 136.681 367.239V356.96L136.581 357.043C136.581 352.712 136.731 346.897 136.764 341.35C136.764 331.354 137.364 314.044 134.565 303.831C130.2 287.871 132.433 288.587 137.697 282.523C141.346 278.325 159.655 262.798 175.382 246.104C188.627 232.043 192.209 222.997 194.525 211.851C194.675 211.168 194.808 210.502 194.924 209.869L195.924 209.469C197.507 198.903 198.408 188.247 198.623 177.565Z" fill="black"/>
<path d="M186.061 89.1172C198.606 91.8495 201.272 95.6813 204.904 105.777C208.536 115.873 214.017 140.53 216.916 155.407C219.415 168.152 220.248 179.598 216.916 184.912L190.659 172.351L179.831 132.033C179.831 132.033 176.165 101.479 186.061 89.1172Z" fill="#FFA8A7"/>
<path d="M185.412 88.4508C191.076 89.7336 198.606 91.4663 201.872 97.7138C205.137 103.961 208.919 116.206 211.868 129.368C214.817 142.529 215.2 144.528 215.2 144.528C215.2 144.528 210.018 151.192 184.479 152.409L177.698 128.618C177.698 128.618 173.283 96.5975 185.412 88.4508Z" fill="#128A5C"/>
<path d="M189.143 152.892C191.259 156.14 193.808 157.506 199.373 160.439C204.554 163.188 210.602 165.836 213.517 171.751C212.851 166.37 210.052 163.604 203.621 159.572C197.19 155.541 187.711 150.659 187.711 150.659L189.143 152.892Z" fill="#F28F8F"/>
<path d="M189.143 152.892C191.259 156.14 193.808 157.507 199.373 160.439C204.554 163.188 210.602 165.837 213.517 171.751C216.099 176.965 218.948 181.33 216.849 184.929C215.45 187.411 207.936 188.661 200.922 187.861C193.908 187.061 189.427 180.997 182.596 175.633C176.732 171.018 173.683 168.119 173.683 168.119L189.143 152.892Z" fill="#FFA8A7"/>
<path opacity="0.3" d="M216.916 184.929C215.516 187.428 208.003 188.661 200.989 187.861C195.991 187.278 192.392 184.129 188.26 180.447L188.011 180.597L181.497 175.016L181.63 174.816C176.449 170.685 173.733 168.152 173.733 168.152L179.831 162.105C179.964 162.738 180.047 163.088 180.064 163.121C180.297 163.637 190.726 159.356 190.726 159.356C190.726 159.356 186.161 141.263 182.813 129.551C179.464 117.839 178.698 99.6797 180.763 94.0653C181.81 91.8426 183.411 89.9264 185.412 88.5008C191.076 89.767 198.606 91.5163 201.872 97.7638C205.137 104.011 208.919 116.256 211.868 129.418C214.817 142.579 215.2 144.578 215.2 144.578C215.046 144.752 214.879 144.914 214.7 145.062C215.516 148.793 216.233 152.359 216.832 155.441C219.415 168.169 220.231 179.598 216.916 184.929Z" fill="black"/>
<path d="M192.959 156.257L196.84 159.089C196.84 159.089 201.838 172.167 188.011 180.597L181.497 175.033L192.959 156.257Z" fill="#37474F"/>
<path d="M179.114 156.374C182.046 153.991 182.813 151.376 186.961 149.493C191.109 147.61 193.625 147.994 198.007 146.278C202.388 144.562 205.903 143.829 208.952 145.178C212.001 146.528 211.335 148.294 208.802 149.543C206.27 150.793 202.005 152.342 198.956 154.108C195.907 155.874 193.042 156.79 192.659 160.372C192.199 166.063 192.043 171.774 192.192 177.482C192.342 183.563 193.042 188.544 192.525 189.144C192.009 189.744 188.86 189.744 187.627 186.228C186.395 182.713 185.612 170.751 185.612 170.751C185.612 170.751 184.079 178.665 182.996 184.462C181.913 190.26 181.33 194.692 180.98 195.924C180.63 197.157 176.648 195.775 176.432 191.293C176.215 186.811 178.414 173.85 178.414 173.85C178.414 173.85 174.366 179.431 171.75 183.063C169.135 186.695 165.853 191.676 164.82 192.876C163.787 194.075 161.388 191.51 162.387 188.078C163.387 184.646 168.752 176.516 168.752 176.516C168.752 176.516 162.737 181.63 161.721 182.097C160.705 182.563 157.873 181.813 159.255 178.032C160.188 175.516 162.004 174.033 166.886 169.502C171.767 164.97 171.884 162.838 173.55 160.739C175.666 157.923 176.998 158.106 179.114 156.374Z" fill="black"/>
<path d="M192.525 189.227C192.34 189.377 192.127 189.488 191.898 189.554C191.669 189.619 191.429 189.639 191.193 189.61C190.711 189.587 190.238 189.479 189.793 189.294C188.909 188.867 188.181 188.174 187.711 187.311C186.943 185.591 186.465 183.756 186.295 181.88C186.028 180.047 185.845 178.215 185.745 176.366C185.645 174.516 185.562 172.684 185.612 170.835C186.195 174.483 186.594 178.132 187.111 181.763C187.285 183.554 187.676 185.316 188.277 187.011C188.624 187.805 189.206 188.473 189.943 188.927C190.314 189.191 190.744 189.356 191.196 189.409C191.647 189.461 192.105 189.399 192.525 189.227Z" fill="white"/>
<path d="M180.98 195.891C180.98 196.224 180.547 196.391 180.23 196.391C179.91 196.382 179.593 196.315 179.297 196.191C178.671 195.953 178.103 195.584 177.631 195.108C176.746 194.141 176.197 192.914 176.065 191.609C175.983 189.088 176.111 186.563 176.449 184.063C176.765 181.58 177.132 179.065 177.565 176.649C177.998 174.233 178.564 171.734 179.231 169.318L178.231 176.749C177.915 179.214 177.548 181.747 177.298 184.162C176.938 186.606 176.748 189.073 176.732 191.543C176.76 192.757 177.188 193.928 177.948 194.875C178.324 195.35 178.795 195.741 179.331 196.024C179.599 196.17 179.893 196.261 180.197 196.291C180.53 196.341 180.897 196.274 180.98 195.891Z" fill="white"/>
<path d="M159.272 178.048C160.138 175.516 162.271 173.717 164.087 171.851C166.027 170.094 167.863 168.225 169.585 166.253C170.384 165.239 171.103 164.164 171.734 163.038C172.325 161.844 173.058 160.725 173.916 159.706C174.816 158.686 175.909 157.853 177.132 157.257C178.25 156.631 179.262 155.833 180.13 154.891C181.03 153.975 181.796 152.925 182.779 151.975C183.744 150.986 184.871 150.17 186.111 149.56C188.528 148.441 191.091 147.672 193.725 147.277C195.009 147.025 196.273 146.68 197.507 146.244C198.723 145.811 199.989 145.345 201.255 145.012C203.792 144.167 206.545 144.238 209.036 145.211C206.537 144.377 203.824 144.448 201.372 145.411C200.122 145.778 198.906 146.261 197.673 146.744C196.436 147.218 195.167 147.602 193.875 147.894C191.313 148.346 188.821 149.13 186.461 150.226C185.331 150.821 184.307 151.598 183.429 152.525C182.546 153.458 181.763 154.508 180.813 155.474C179.88 156.46 178.801 157.297 177.615 157.956C176.459 158.496 175.423 159.261 174.566 160.205C173.738 161.191 173.028 162.27 172.45 163.421C171.796 164.605 171.026 165.721 170.151 166.753C168.363 168.697 166.454 170.528 164.437 172.234C162.454 173.917 160.272 175.566 159.272 178.048Z" fill="white"/>
<path d="M189.743 159.506C185.195 160.988 181.147 158.606 180.664 157.473C180.664 160.489 186.428 162.838 189.743 159.506Z" fill="#37474F"/>
<path d="M159.005 180.281C159.355 180.88 160.555 181.18 161.754 180.381C162.954 179.581 165.953 176.815 167.319 175.549C168.685 174.283 173.383 169.735 173.383 169.735L168.835 176.532C168.835 176.532 162.821 181.647 161.804 182.113C161.499 182.219 161.174 182.253 160.853 182.213C160.533 182.173 160.226 182.06 159.956 181.883C159.685 181.706 159.459 181.47 159.295 181.192C159.13 180.914 159.031 180.603 159.005 180.281Z" fill="#37474F"/>
<path d="M162.338 188.094C162.788 186.352 163.454 184.673 164.32 183.096C165.12 181.43 165.986 179.948 166.986 178.431C167.985 176.915 168.952 175.433 170.001 174C171.051 172.567 172.117 171.118 173.25 169.735C171.584 172.9 169.568 175.866 167.685 178.881L164.887 183.413C163.926 184.911 163.075 186.475 162.338 188.094Z" fill="white"/>
<path d="M192.559 151.492C192.492 151.485 192.428 151.463 192.37 151.429C192.313 151.394 192.263 151.348 192.226 151.292C192.169 151.197 192.151 151.083 192.175 150.974C192.2 150.865 192.266 150.771 192.359 150.709C196.456 148.255 200.977 146.588 205.687 145.795C205.742 145.785 205.798 145.787 205.853 145.801C205.907 145.815 205.958 145.84 206.001 145.874C206.045 145.909 206.082 145.952 206.108 146.002C206.134 146.051 206.149 146.105 206.153 146.161C206.163 146.271 206.131 146.38 206.062 146.467C205.994 146.554 205.896 146.611 205.787 146.628C201.209 147.4 196.817 149.028 192.842 151.426C192.757 151.477 192.658 151.501 192.559 151.492Z" fill="#37474F"/>
<path d="M188.994 185.179C188.898 185.18 188.805 185.147 188.732 185.086C188.659 185.025 188.61 184.94 188.594 184.846C187.731 179.003 187.263 173.108 187.194 167.203C187.214 167.104 187.267 167.016 187.344 166.952C187.422 166.889 187.519 166.854 187.619 166.854C187.719 166.854 187.816 166.889 187.894 166.952C187.971 167.016 188.024 167.104 188.044 167.203C188.104 173.058 188.56 178.902 189.41 184.696C189.422 184.749 189.424 184.805 189.415 184.859C189.405 184.913 189.385 184.965 189.356 185.011C189.327 185.058 189.288 185.098 189.243 185.13C189.198 185.161 189.147 185.184 189.093 185.195L188.994 185.179Z" fill="#37474F"/>
<path d="M177.731 191.06C177.677 191.06 177.624 191.049 177.574 191.028C177.525 191.007 177.48 190.976 177.443 190.937C177.405 190.898 177.376 190.852 177.357 190.801C177.338 190.751 177.329 190.697 177.332 190.643C177.803 184.068 178.873 177.549 180.53 171.168C180.568 171.063 180.644 170.976 180.742 170.923C180.841 170.871 180.955 170.857 181.063 170.884C181.171 170.919 181.26 170.994 181.313 171.094C181.366 171.193 181.378 171.309 181.347 171.418C179.695 177.72 178.629 184.161 178.165 190.66C178.16 190.769 178.115 190.873 178.038 190.95C177.961 191.027 177.857 191.072 177.748 191.076L177.731 191.06Z" fill="#37474F"/>
<path d="M163.787 187.678H163.67C163.565 187.637 163.48 187.556 163.434 187.454C163.387 187.351 163.382 187.234 163.42 187.128C164.97 182.813 175.082 169.552 175.532 168.985C175.601 168.9 175.699 168.845 175.807 168.829C175.916 168.814 176.026 168.84 176.115 168.902C176.201 168.974 176.258 169.075 176.273 169.186C176.288 169.297 176.262 169.409 176.199 169.502C176.099 169.635 165.72 183.213 164.203 187.411C164.172 187.494 164.114 187.565 164.039 187.613C163.964 187.661 163.876 187.684 163.787 187.678Z" fill="#37474F"/>
<path d="M161.571 176.366C161.501 176.387 161.425 176.387 161.355 176.366C161.264 176.302 161.202 176.206 161.18 176.097C161.159 175.989 161.179 175.876 161.238 175.783C163.703 173.07 166.426 170.604 169.368 168.419C170.251 167.702 170.951 167.153 171.284 166.853C171.362 166.776 171.467 166.734 171.576 166.734C171.685 166.734 171.789 166.776 171.867 166.853C171.907 166.892 171.939 166.938 171.961 166.99C171.983 167.041 171.995 167.097 171.995 167.153C171.995 167.209 171.983 167.264 171.961 167.316C171.939 167.367 171.907 167.414 171.867 167.453C171.534 167.752 170.817 168.319 169.934 169.119C167.063 171.26 164.397 173.664 161.971 176.299C161.918 176.348 161.852 176.381 161.781 176.393C161.71 176.404 161.637 176.395 161.571 176.366Z" fill="#37474F"/>
<path d="M204.621 145.611C204.77 144.662 206.137 144.095 207.669 144.345C209.202 144.595 210.302 145.578 210.152 146.528C210.002 147.477 208.619 148.044 207.103 147.794C205.587 147.544 204.471 146.561 204.621 145.611Z" fill="#128A5C"/>
<path opacity="0.5" d="M204.621 145.611C204.77 144.662 206.137 144.095 207.669 144.345C209.202 144.595 210.302 145.578 210.152 146.528C210.002 147.477 208.619 148.044 207.103 147.794C205.587 147.544 204.471 146.561 204.621 145.611Z" fill="white"/>
<path d="M188.444 183.929C189.343 183.563 190.526 184.446 191.109 185.878C191.692 187.311 191.443 188.761 190.56 189.127C189.677 189.494 188.46 188.611 187.894 187.178C187.327 185.745 187.561 184.229 188.444 183.929Z" fill="#128A5C"/>
<path opacity="0.5" d="M188.444 183.929C189.343 183.563 190.526 184.446 191.109 185.878C191.692 187.311 191.443 188.761 190.56 189.127C189.677 189.494 188.46 188.611 187.894 187.178C187.327 185.745 187.561 184.229 188.444 183.929Z" fill="white"/>
<path opacity="0.5" d="M189.627 189.094C191.109 189.094 190.959 187.228 190.26 185.762C189.56 184.296 188.36 183.963 187.794 184.579C187.64 184.992 187.57 185.431 187.587 185.872C187.604 186.312 187.708 186.745 187.894 187.145C188.031 187.573 188.255 187.967 188.554 188.303C188.852 188.639 189.218 188.908 189.627 189.094Z" fill="white"/>
<path d="M177.748 189.227C178.714 189.227 179.547 190.393 179.631 191.943C179.714 193.492 178.981 194.775 177.965 194.825C176.948 194.875 176.165 193.642 176.099 192.109C176.032 190.577 176.798 189.227 177.748 189.227Z" fill="#128A5C"/>
<path opacity="0.5" d="M177.748 189.227C178.714 189.227 179.547 190.393 179.631 191.943C179.714 193.492 178.981 194.775 177.965 194.825C176.948 194.875 176.165 193.642 176.099 192.109C176.032 190.577 176.798 189.227 177.748 189.227Z" fill="white"/>
<path opacity="0.5" d="M177.748 189.227C176.798 189.227 176.082 190.56 176.082 192.109C176.056 192.631 176.173 193.15 176.419 193.611C176.666 194.072 177.033 194.457 177.481 194.725C177.821 194.497 178.11 194.202 178.331 193.859C179.414 192.359 178.864 189.127 177.748 189.227Z" fill="white"/>
<path d="M164.153 185.895C165.103 186.095 165.603 187.561 165.286 189.011C164.97 190.46 163.937 191.576 162.987 191.376C162.038 191.176 161.554 189.794 161.871 188.278C162.188 186.761 163.22 185.629 164.153 185.895Z" fill="#128A5C"/>
<path opacity="0.5" d="M164.153 185.895C165.103 186.095 165.603 187.561 165.286 189.011C164.97 190.46 163.937 191.576 162.987 191.376C162.038 191.176 161.554 189.794 161.871 188.278C162.188 186.761 163.22 185.629 164.153 185.895Z" fill="white"/>
<path opacity="0.5" d="M164.487 187.678C164.504 187.323 164.425 186.969 164.258 186.655C164.091 186.341 163.842 186.079 163.537 185.895C163.089 186.112 162.702 186.438 162.411 186.842C162.12 187.247 161.935 187.717 161.871 188.211C161.731 188.692 161.71 189.2 161.812 189.691C161.914 190.182 162.134 190.641 162.454 191.026C164.337 191.143 164.587 189.011 164.487 187.678Z" fill="white"/>
<path d="M162.421 174.067C163.254 174.566 163.304 176.032 162.521 177.399C161.738 178.765 160.438 179.431 159.605 178.948C158.772 178.465 158.722 176.982 159.505 175.616C160.288 174.25 161.604 173.583 162.421 174.067Z" fill="#128A5C"/>
<path opacity="0.5" d="M162.421 174.067C163.254 174.566 163.304 176.032 162.521 177.399C161.738 178.765 160.438 179.431 159.605 178.948C158.772 178.465 158.722 176.982 159.505 175.616C160.288 174.25 161.604 173.583 162.421 174.067Z" fill="white"/>
<path opacity="0.5" d="M161.971 173.933C161.448 173.964 160.944 174.135 160.51 174.428C160.076 174.721 159.729 175.126 159.505 175.599C158.772 176.865 158.772 178.232 159.505 178.798C160.488 178.548 161.338 177.632 161.921 175.949C162.338 174.883 162.338 174.233 161.971 173.933Z" fill="white"/>
</svg>
