<svg width="378" height="156" viewBox="0 0 378 156" fill="none" xmlns="http://www.w3.org/2000/svg">
<path d="M188.968 77.7994L196.365 91.8437C196.491 92.0537 196.666 92.23 196.875 92.3577C197.084 92.4853 197.32 92.5605 197.565 92.5768L207.777 94.0429C207.467 94.7596 206.959 95.3725 206.311 95.8088L185.436 108.47C184.911 108.793 184.527 109.301 184.361 109.894C184.194 110.487 184.257 111.12 184.536 111.669L190.834 123.714L198.181 137.692C198.473 138.236 198.958 138.651 199.541 138.855C200.124 139.059 200.763 139.036 201.33 138.792L223.637 128.879C224.345 128.592 225.122 128.523 225.87 128.679L221.222 137.925C221.092 138.136 221.017 138.376 221.002 138.623C220.987 138.87 221.034 139.117 221.138 139.341L228.552 153.419C228.696 153.635 228.892 153.811 229.122 153.93C229.352 154.05 229.609 154.109 229.868 154.102L250.96 154.985C251.653 154.977 252.337 154.824 252.968 154.537C253.599 154.251 254.163 153.836 254.625 153.319L267.087 137.126C268.028 136.022 269.303 135.256 270.719 134.943C275.574 134.045 280.365 132.832 285.063 131.311C285.699 131.128 286.375 131.131 287.01 131.32C287.645 131.509 288.212 131.876 288.645 132.377L296.342 142.124C296.754 142.61 297.317 142.946 297.941 143.079C298.565 143.212 299.215 143.133 299.79 142.857L323.614 130.395C324.17 130.086 324.606 129.6 324.854 129.014C325.101 128.429 325.146 127.777 324.98 127.163L321.365 115.268C321.208 114.625 321.236 113.951 321.445 113.323C321.655 112.695 322.037 112.139 322.548 111.719C326.481 108.74 330.21 105.501 333.71 102.023C334.784 101.04 336.144 100.427 337.592 100.274L357.984 99.3074C358.678 99.2374 359.349 99.0198 359.953 98.6693C360.556 98.3188 361.078 97.8434 361.482 97.2749L372.811 79.4487C372.97 79.2365 373.07 78.9855 373.099 78.7217C373.129 78.458 373.087 78.1913 372.978 77.9493L365.581 63.9049C365.45 63.6956 365.272 63.52 365.06 63.3926C364.849 63.2652 364.611 63.1896 364.364 63.1719L354.169 61.7058C354.478 60.989 354.987 60.3761 355.635 59.9398L376.51 47.2782C377.034 46.9558 377.418 46.4476 377.585 45.8548C377.752 45.262 377.689 44.6281 377.409 44.0795L368.546 27.2029L363.748 18.0233C363.453 17.4817 362.968 17.0691 362.386 16.8659C361.804 16.6626 361.167 16.6833 360.599 16.9237L338.292 26.9197C337.58 27.1932 336.805 27.2568 336.059 27.103L340.707 17.8567C340.837 17.6428 340.912 17.4004 340.927 17.1506C340.941 16.9009 340.895 16.6514 340.791 16.4239L333.394 2.3129C333.257 2.0854 333.06 1.8998 332.825 1.77641C332.59 1.65302 332.326 1.59656 332.061 1.61316L310.969 0.713501C310.273 0.719572 309.586 0.870928 308.952 1.15781C308.318 1.4447 307.751 1.86078 307.287 2.3795L294.842 18.573C293.894 19.6715 292.623 20.4414 291.21 20.7722C286.352 21.6543 281.559 22.8678 276.866 24.404C276.229 24.5791 275.556 24.572 274.923 24.3835C274.289 24.195 273.722 23.8327 273.284 23.3378L265.571 13.575C265.161 13.0897 264.601 12.7544 263.98 12.6217C263.359 12.489 262.711 12.5665 262.139 12.842L238.432 25.3537C237.876 25.6627 237.439 26.1487 237.192 26.7344C236.944 27.3201 236.9 27.9718 237.065 28.5857L240.664 40.481C240.825 41.1222 240.8 41.7959 240.594 42.4239C240.388 43.0519 240.008 43.6086 239.498 44.0295C235.565 47.0091 231.836 50.2484 228.336 53.7256C227.262 54.7084 225.901 55.3215 224.454 55.475L204.062 56.4412C203.366 56.5152 202.694 56.7343 202.089 57.0844C201.483 57.4345 200.958 57.9078 200.547 58.4737L189.235 76.3C189.062 76.5042 188.946 76.7504 188.899 77.0137C188.853 77.2771 188.876 77.5481 188.968 77.7994ZM312.935 72.3682C302.373 89.0282 277.866 101.806 258.19 100.973C250.493 100.657 244.679 98.2745 241.08 94.526C240.831 90.0777 242.596 84.6633 246.478 78.5657C257.041 61.9057 281.548 49.1108 301.223 49.9438C308.92 50.277 314.384 52.2596 317.567 55.5249C318.266 60.4396 316.833 66.2373 312.935 72.3682Z" fill="#128A5C" fill-opacity="0.8"/>
<path opacity="0.2" d="M188.968 77.7994L196.365 91.8437C196.491 92.0537 196.666 92.23 196.875 92.3577C197.084 92.4853 197.32 92.5605 197.565 92.5768L207.777 94.0429C207.467 94.7596 206.959 95.3725 206.311 95.8088L185.436 108.47C184.911 108.793 184.527 109.301 184.361 109.894C184.194 110.487 184.257 111.12 184.536 111.669L190.834 123.714L198.181 137.692C198.473 138.236 198.958 138.651 199.541 138.855C200.124 139.059 200.763 139.036 201.33 138.792L223.637 128.879C224.345 128.592 225.122 128.523 225.87 128.679L221.222 137.925C221.092 138.136 221.017 138.376 221.002 138.623C220.987 138.87 221.034 139.117 221.138 139.341L228.552 153.419C228.696 153.635 228.892 153.811 229.122 153.93C229.352 154.05 229.609 154.109 229.868 154.102L250.96 154.985C251.653 154.977 252.337 154.824 252.968 154.537C253.599 154.251 254.163 153.836 254.625 153.319L267.087 137.126C268.028 136.022 269.303 135.256 270.719 134.943C275.574 134.045 280.365 132.832 285.063 131.311C285.699 131.128 286.375 131.131 287.01 131.32C287.645 131.509 288.212 131.876 288.645 132.377L296.342 142.124C296.754 142.61 297.317 142.946 297.941 143.079C298.565 143.212 299.215 143.133 299.79 142.857L323.614 130.395C324.17 130.086 324.606 129.6 324.854 129.014C325.101 128.429 325.146 127.777 324.98 127.163L321.365 115.268C321.208 114.625 321.236 113.951 321.445 113.323C321.655 112.695 322.037 112.139 322.548 111.719C326.481 108.74 330.21 105.501 333.71 102.023C334.784 101.04 336.144 100.427 337.592 100.274L357.984 99.3074C358.678 99.2374 359.349 99.0198 359.953 98.6693C360.556 98.3188 361.078 97.8434 361.482 97.2749L372.811 79.4487C372.97 79.2365 373.07 78.9855 373.099 78.7217C373.129 78.458 373.087 78.1913 372.978 77.9493L365.581 63.9049C365.45 63.6956 365.272 63.52 365.06 63.3926C364.849 63.2652 364.611 63.1896 364.364 63.1719L354.169 61.7058C354.478 60.989 354.987 60.3761 355.635 59.9398L376.51 47.2782C377.034 46.9558 377.418 46.4476 377.585 45.8548C377.752 45.262 377.689 44.6281 377.409 44.0795L368.546 27.2029L363.748 18.0233C363.453 17.4817 362.968 17.0691 362.386 16.8659C361.804 16.6626 361.167 16.6833 360.599 16.9237L338.292 26.9197C337.58 27.1932 336.805 27.2568 336.059 27.103L340.707 17.8567C340.837 17.6428 340.912 17.4004 340.927 17.1506C340.941 16.9009 340.895 16.6514 340.791 16.4239L333.394 2.3129C333.257 2.0854 333.06 1.8998 332.825 1.77641C332.59 1.65302 332.326 1.59656 332.061 1.61316L310.969 0.713501C310.273 0.719572 309.586 0.870928 308.952 1.15781C308.318 1.4447 307.751 1.86078 307.287 2.3795L294.842 18.573C293.894 19.6715 292.623 20.4414 291.21 20.7722C286.352 21.6543 281.559 22.8678 276.866 24.404C276.229 24.5791 275.556 24.572 274.923 24.3835C274.289 24.195 273.722 23.8327 273.284 23.3378L265.571 13.575C265.161 13.0897 264.601 12.7544 263.98 12.6217C263.359 12.489 262.711 12.5665 262.139 12.842L238.432 25.3537C237.876 25.6627 237.439 26.1487 237.192 26.7344C236.944 27.3201 236.9 27.9718 237.065 28.5857L240.664 40.481C240.825 41.1222 240.8 41.7959 240.594 42.4239C240.388 43.0519 240.008 43.6086 239.498 44.0295C235.565 47.0091 231.836 50.2484 228.336 53.7256C227.262 54.7084 225.901 55.3215 224.454 55.475L204.062 56.4412C203.366 56.5152 202.694 56.7343 202.089 57.0844C201.483 57.4345 200.958 57.9078 200.547 58.4737L189.235 76.3C189.062 76.5042 188.946 76.7504 188.899 77.0137C188.853 77.2771 188.876 77.5481 188.968 77.7994ZM312.935 72.3682C302.373 89.0282 277.866 101.806 258.19 100.973C250.493 100.657 244.679 98.2745 241.08 94.526C240.831 90.0777 242.596 84.6633 246.478 78.5657C257.041 61.9057 281.548 49.1108 301.223 49.9438C308.92 50.277 314.384 52.2596 317.567 55.5249C318.266 60.4396 316.833 66.2373 312.935 72.3682Z" fill="white" fill-opacity="0.8"/>
<path opacity="0.1" d="M345.056 58.1072C344.967 58.3831 344.941 58.6753 344.981 58.9623C345.021 59.2493 345.124 59.5237 345.284 59.7653C345.444 60.0068 345.656 60.2093 345.905 60.3577C346.154 60.5062 346.433 60.5968 346.722 60.6229L354.152 61.6891C354.468 60.9665 354.989 60.3525 355.651 59.9232L376.526 47.2616C377.052 46.9361 377.436 46.4249 377.603 45.8293C377.77 45.2338 377.707 44.5973 377.426 44.0462L368.563 27.1863L370.046 30.0351C370.323 30.5826 370.386 31.2137 370.223 31.8052C370.059 32.3968 369.681 32.9062 369.163 33.2339L348.271 45.8788C347.713 46.2789 347.252 46.7998 346.923 47.4027C346.595 48.0056 346.406 48.6749 346.372 49.3607C346.285 52.3184 345.843 55.2549 345.056 58.1072ZM333.394 2.44617C333.504 2.87759 333.451 3.33465 333.244 3.72897L325.23 19.6726C325.091 19.9235 325.01 20.2025 324.994 20.4888C324.977 20.7752 325.024 21.0617 325.133 21.3271C325.242 21.5926 325.409 21.8302 325.622 22.0225C325.835 22.2148 326.088 22.3568 326.363 22.4382C329.194 23.4424 331.891 24.7909 334.393 26.4532C334.902 26.767 335.468 26.9765 336.059 27.0696L340.707 17.8067C340.837 17.5959 340.912 17.3562 340.927 17.1091C340.942 16.862 340.895 16.6152 340.791 16.3906L333.394 2.44617Z" fill="black" fill-opacity="0.8"/>
<path opacity="0.1" d="M241.664 69.3694C252.226 52.7094 276.733 39.9145 296.408 40.7475C308.853 41.2639 316.4 47.1116 317.583 55.5415C314.418 52.2095 308.937 50.277 301.223 49.9438C281.531 49.1108 257.041 61.939 246.478 78.5657C242.613 84.6466 240.814 90.0611 241.064 94.5259C235.449 88.6949 235.249 79.482 241.664 69.3694Z" fill="black" fill-opacity="0.8"/>
<path d="M198.214 137.759C198.506 138.299 198.99 138.709 199.571 138.906C200.152 139.104 200.786 139.075 201.346 138.825L223.671 128.929C224.056 128.766 224.469 128.681 224.887 128.679L217.507 114.618C217.08 114.625 216.66 114.722 216.274 114.901L193.966 124.897C193.451 125.116 192.876 125.152 192.337 125.001C191.798 124.849 191.327 124.519 191 124.064L198.214 137.759ZM196.365 91.8604C196.499 92.0677 196.678 92.2426 196.889 92.3722C197.099 92.5019 197.336 92.5831 197.581 92.6101L207.794 94.0595C208.036 93.5351 208.177 92.97 208.21 92.3935C208.276 89.58 208.673 86.7841 209.393 84.0635C209.404 83.9273 209.432 83.793 209.476 83.6637C209.542 83.3393 209.542 83.0051 209.476 82.6807C209.476 82.5808 209.476 82.4808 209.476 82.3809C209.403 82.1895 209.302 82.0098 209.177 81.8477C208.956 81.5825 208.668 81.3811 208.344 81.2646C208.203 81.1964 208.05 81.1567 207.894 81.148L190.117 78.549C189.975 78.5338 189.835 78.5002 189.701 78.4491C189.515 78.4064 189.346 78.3075 189.218 78.1659C189.082 78.0708 188.978 77.9374 188.918 77.7827L196.365 91.8604ZM228.569 153.502C228.708 153.721 228.904 153.898 229.136 154.016C229.367 154.133 229.626 154.186 229.885 154.169L250.976 155.068C251.956 155.058 252.909 154.75 253.709 154.185L246.345 140.158C245.546 140.724 244.592 141.032 243.613 141.041L222.505 140.158C222.26 140.158 222.018 140.105 221.796 140.001C221.574 139.897 221.378 139.746 221.222 139.558L228.569 153.502ZM335.793 100.773C336.364 100.523 336.971 100.366 337.592 100.307L358 99.3407C358.58 99.2819 359.145 99.1182 359.666 98.8576L352.303 84.8632C351.786 85.1301 351.218 85.2835 350.637 85.313L330.245 86.2793C329.613 86.3337 328.993 86.4913 328.412 86.7458L335.793 100.773ZM297.091 142.74C297.5 142.98 297.961 143.116 298.435 143.136C298.908 143.157 299.379 143.061 299.807 142.857L323.631 130.412C324.148 130.122 324.558 129.672 324.797 129.129L317.433 115.084C317.194 115.637 316.778 116.094 316.25 116.384L292.41 128.829C292.015 129.029 291.578 129.134 291.135 129.134C290.693 129.134 290.256 129.029 289.861 128.829L297.091 142.74Z" fill="#128A5C" fill-opacity="0.8"/>
<path opacity="0.7" d="M198.214 137.759C198.506 138.299 198.99 138.709 199.571 138.906C200.152 139.104 200.786 139.075 201.346 138.825L223.671 128.929C224.056 128.766 224.469 128.681 224.887 128.679L217.507 114.618C217.08 114.625 216.66 114.722 216.274 114.901L193.966 124.897C193.451 125.116 192.876 125.152 192.337 125.001C191.798 124.849 191.327 124.519 191 124.064L198.214 137.759ZM196.365 91.8604C196.499 92.0677 196.678 92.2426 196.889 92.3722C197.099 92.5019 197.336 92.5831 197.581 92.6101L207.794 94.0595C208.036 93.5351 208.177 92.97 208.21 92.3935C208.276 89.58 208.673 86.7841 209.393 84.0635C209.404 83.9273 209.432 83.793 209.476 83.6637C209.542 83.3393 209.542 83.0051 209.476 82.6807C209.476 82.5808 209.476 82.4808 209.476 82.3809C209.403 82.1895 209.302 82.0098 209.177 81.8477C208.956 81.5825 208.668 81.3811 208.344 81.2646C208.203 81.1964 208.05 81.1567 207.894 81.148L190.117 78.549C189.975 78.5338 189.835 78.5002 189.701 78.4491C189.515 78.4064 189.346 78.3075 189.218 78.1659C189.082 78.0708 188.978 77.9374 188.918 77.7827L196.365 91.8604ZM228.569 153.502C228.708 153.721 228.904 153.898 229.136 154.016C229.367 154.133 229.626 154.186 229.885 154.169L250.976 155.068C251.956 155.058 252.909 154.75 253.709 154.185L246.345 140.158C245.546 140.724 244.592 141.032 243.613 141.041L222.505 140.158C222.26 140.158 222.018 140.105 221.796 140.001C221.574 139.897 221.378 139.746 221.222 139.558L228.569 153.502ZM335.793 100.773C336.364 100.523 336.971 100.366 337.592 100.307L358 99.3407C358.58 99.2819 359.145 99.1182 359.666 98.8576L352.303 84.8632C351.786 85.1301 351.218 85.2835 350.637 85.313L330.245 86.2793C329.613 86.3337 328.993 86.4913 328.412 86.7458L335.793 100.773ZM297.091 142.74C297.5 142.98 297.961 143.116 298.435 143.136C298.908 143.157 299.379 143.061 299.807 142.857L323.631 130.412C324.148 130.122 324.558 129.672 324.797 129.129L317.433 115.084C317.194 115.637 316.778 116.094 316.25 116.384L292.41 128.829C292.015 129.029 291.578 129.134 291.135 129.134C290.693 129.134 290.256 129.029 289.861 128.829L297.091 142.74Z" fill="white" fill-opacity="0.8"/>
<path d="M200.463 58.4737L189.151 76.3C188.983 76.4982 188.875 76.7401 188.84 76.9975C188.805 77.2549 188.844 77.517 188.952 77.7531C189.061 77.9892 189.234 78.1895 189.452 78.3304C189.67 78.4714 189.924 78.5472 190.184 78.549L207.86 81.0814C208.149 81.1075 208.428 81.1981 208.677 81.3465C208.925 81.495 209.138 81.6975 209.298 81.939C209.458 82.1806 209.561 82.455 209.601 82.742C209.64 83.029 209.615 83.3212 209.526 83.597C208.755 86.4568 208.33 89.3989 208.26 92.3602C208.23 93.0422 208.042 93.708 207.713 94.3061C207.384 94.9041 206.921 95.4183 206.361 95.8088L185.486 108.47C184.961 108.793 184.577 109.301 184.411 109.894C184.244 110.487 184.307 111.12 184.586 111.669L190.884 123.714C191.176 124.259 191.661 124.674 192.244 124.877C192.827 125.081 193.465 125.058 194.033 124.814L216.34 114.818C216.983 114.581 217.671 114.494 218.352 114.563C219.034 114.632 219.69 114.856 220.272 115.218C222.73 116.861 225.383 118.193 228.169 119.183C228.444 119.265 228.697 119.407 228.91 119.599C229.123 119.791 229.29 120.028 229.4 120.293C229.51 120.557 229.56 120.843 229.546 121.13C229.532 121.416 229.454 121.696 229.318 121.948L221.305 137.892C221.154 138.106 221.067 138.359 221.055 138.62C221.043 138.882 221.107 139.142 221.239 139.368C221.37 139.595 221.564 139.779 221.798 139.898C222.031 140.017 222.294 140.067 222.554 140.041L243.646 140.924C244.339 140.916 245.023 140.763 245.654 140.476C246.285 140.19 246.849 139.775 247.311 139.258L259.773 123.065C260.723 121.971 262.004 121.216 263.421 120.915C268.277 120.017 273.068 118.804 277.766 117.284C278.402 117.1 279.078 117.103 279.713 117.292C280.348 117.481 280.915 117.848 281.348 118.35L289.061 128.096C289.471 128.581 290.031 128.917 290.652 129.049C291.273 129.182 291.921 129.104 292.493 128.829L316.317 116.367C316.873 116.058 317.309 115.572 317.557 114.987C317.804 114.401 317.849 113.749 317.683 113.135L314.085 101.24C313.924 100.599 313.948 99.925 314.154 99.297C314.361 98.6689 314.741 98.1123 315.251 97.6914C319.187 94.7167 322.917 91.4771 326.413 87.9953C327.487 87.0125 328.847 86.3995 330.295 86.246L350.687 85.2797C351.381 85.2096 352.052 84.9921 352.656 84.6415C353.259 84.291 353.78 83.8156 354.185 83.2471L365.514 65.421C365.683 65.2217 365.791 64.9781 365.826 64.7193C365.86 64.4604 365.82 64.1969 365.709 63.9602C365.599 63.7235 365.423 63.5235 365.202 63.3837C364.982 63.244 364.726 63.1705 364.464 63.1719L346.721 60.6395C346.433 60.6134 346.154 60.5228 345.905 60.3744C345.656 60.2259 345.444 60.0235 345.284 59.7819C345.124 59.5404 345.021 59.2659 344.981 58.9789C344.941 58.6919 344.967 58.3997 345.055 58.1239C345.827 55.2697 346.252 52.3331 346.322 49.3774C346.351 48.6928 346.538 48.0241 346.867 47.4232C347.196 46.8223 347.66 46.3052 348.221 45.9121L369.096 33.2505C369.62 32.9281 370.004 32.4198 370.171 31.827C370.338 31.2342 370.275 30.6004 369.995 30.0518L363.698 18.0066C363.403 17.465 362.918 17.0525 362.336 16.8493C361.754 16.646 361.117 16.6666 360.549 16.907L338.242 26.903C337.597 27.134 336.909 27.2165 336.228 27.1444C335.547 27.0723 334.891 26.8474 334.31 26.4865C331.852 24.8431 329.199 23.5112 326.413 22.5215C326.138 22.4394 325.885 22.2972 325.672 22.1052C325.459 21.9133 325.292 21.6763 325.182 21.4115C325.072 21.1468 325.022 20.8609 325.036 20.5745C325.05 20.2882 325.128 20.0085 325.263 19.7559L333.277 3.81228C333.431 3.60006 333.52 3.34758 333.532 3.08575C333.545 2.82391 333.481 2.56404 333.349 2.33786C333.216 2.11168 333.021 1.92901 332.786 1.81215C332.551 1.69528 332.288 1.6493 332.027 1.67981L310.936 0.780151C310.24 0.786222 309.553 0.937527 308.919 1.22441C308.285 1.5113 307.718 1.92743 307.254 2.44615L294.809 18.6397C293.861 19.7381 292.59 20.508 291.177 20.8388C286.318 21.721 281.526 22.9344 276.833 24.4707C276.196 24.6457 275.522 24.6386 274.889 24.4501C274.256 24.2617 273.688 23.8994 273.251 23.4045L265.537 13.6417C265.127 13.1564 264.568 12.821 263.947 12.6883C263.325 12.5556 262.678 12.6331 262.105 12.9086L238.431 25.3536C237.876 25.6626 237.439 26.1487 237.192 26.7344C236.944 27.3201 236.9 27.9718 237.065 28.5857L240.664 40.481C240.825 41.1222 240.8 41.7959 240.594 42.4239C240.388 43.0519 240.008 43.6086 239.498 44.0295C235.565 47.0091 231.836 50.2484 228.336 53.7256C227.262 54.7084 225.901 55.3215 224.454 55.475L204.062 56.4412C203.352 56.5038 202.663 56.7175 202.043 57.0681C201.422 57.4187 200.883 57.8979 200.463 58.4737ZM296.408 40.7475C316.1 41.5805 323.497 55.7415 312.935 72.4015C302.373 89.0615 277.866 101.84 258.19 101.007C238.515 100.174 231.101 86.0127 241.664 69.3527C252.226 52.6927 276.749 39.9145 296.408 40.7475Z" fill="#128A5C" fill-opacity="0.8"/>
<path opacity="0.55" d="M200.463 58.4737L189.151 76.3C188.983 76.4982 188.875 76.7401 188.84 76.9975C188.805 77.2549 188.844 77.517 188.952 77.7531C189.061 77.9892 189.234 78.1895 189.452 78.3304C189.67 78.4714 189.924 78.5472 190.184 78.549L207.86 81.0814C208.149 81.1075 208.428 81.1981 208.677 81.3465C208.925 81.495 209.138 81.6975 209.298 81.939C209.458 82.1806 209.561 82.455 209.601 82.742C209.64 83.029 209.615 83.3212 209.526 83.597C208.755 86.4568 208.33 89.3989 208.26 92.3602C208.23 93.0422 208.042 93.708 207.713 94.3061C207.384 94.9041 206.921 95.4183 206.361 95.8088L185.486 108.47C184.961 108.793 184.577 109.301 184.411 109.894C184.244 110.487 184.307 111.12 184.586 111.669L190.884 123.714C191.176 124.259 191.661 124.674 192.244 124.877C192.827 125.081 193.465 125.058 194.033 124.814L216.34 114.818C216.983 114.581 217.671 114.494 218.352 114.563C219.034 114.632 219.69 114.856 220.272 115.218C222.73 116.861 225.383 118.193 228.169 119.183C228.444 119.265 228.697 119.407 228.91 119.599C229.123 119.791 229.29 120.028 229.4 120.293C229.51 120.557 229.56 120.843 229.546 121.13C229.532 121.416 229.454 121.696 229.318 121.948L221.305 137.892C221.154 138.106 221.067 138.359 221.055 138.62C221.043 138.882 221.107 139.142 221.239 139.368C221.37 139.595 221.564 139.779 221.798 139.898C222.031 140.017 222.294 140.067 222.554 140.041L243.646 140.924C244.339 140.916 245.023 140.763 245.654 140.476C246.285 140.19 246.849 139.775 247.311 139.258L259.773 123.065C260.723 121.971 262.004 121.216 263.421 120.915C268.277 120.017 273.068 118.804 277.766 117.284C278.402 117.1 279.078 117.103 279.713 117.292C280.348 117.481 280.915 117.848 281.348 118.35L289.061 128.096C289.471 128.581 290.031 128.917 290.652 129.049C291.273 129.182 291.921 129.104 292.493 128.829L316.317 116.367C316.873 116.058 317.309 115.572 317.557 114.987C317.804 114.401 317.849 113.749 317.683 113.135L314.085 101.24C313.924 100.599 313.948 99.925 314.154 99.297C314.361 98.6689 314.741 98.1123 315.251 97.6914C319.187 94.7167 322.917 91.4771 326.413 87.9953C327.487 87.0125 328.847 86.3995 330.295 86.246L350.687 85.2797C351.381 85.2096 352.052 84.9921 352.656 84.6415C353.259 84.291 353.78 83.8156 354.185 83.2471L365.514 65.421C365.683 65.2217 365.791 64.9781 365.826 64.7193C365.86 64.4604 365.82 64.1969 365.709 63.9602C365.599 63.7235 365.423 63.5235 365.202 63.3837C364.982 63.244 364.726 63.1705 364.464 63.1719L346.721 60.6395C346.433 60.6134 346.154 60.5228 345.905 60.3744C345.656 60.2259 345.444 60.0235 345.284 59.7819C345.124 59.5404 345.021 59.2659 344.981 58.9789C344.941 58.6919 344.967 58.3997 345.055 58.1239C345.827 55.2697 346.252 52.3331 346.322 49.3774C346.351 48.6928 346.538 48.0241 346.867 47.4232C347.196 46.8223 347.66 46.3052 348.221 45.9121L369.096 33.2505C369.62 32.9281 370.004 32.4198 370.171 31.827C370.338 31.2342 370.275 30.6004 369.995 30.0518L363.698 18.0066C363.403 17.465 362.918 17.0525 362.336 16.8493C361.754 16.646 361.117 16.6666 360.549 16.907L338.242 26.903C337.597 27.134 336.909 27.2165 336.228 27.1444C335.547 27.0723 334.891 26.8474 334.31 26.4865C331.852 24.8431 329.199 23.5112 326.413 22.5215C326.138 22.4394 325.885 22.2972 325.672 22.1052C325.459 21.9133 325.292 21.6763 325.182 21.4115C325.072 21.1468 325.022 20.8609 325.036 20.5745C325.05 20.2882 325.128 20.0085 325.263 19.7559L333.277 3.81228C333.431 3.60006 333.52 3.34758 333.532 3.08575C333.545 2.82391 333.481 2.56404 333.349 2.33786C333.216 2.11168 333.021 1.92901 332.786 1.81215C332.551 1.69528 332.288 1.6493 332.027 1.67981L310.936 0.780151C310.24 0.786222 309.553 0.937527 308.919 1.22441C308.285 1.5113 307.718 1.92743 307.254 2.44615L294.809 18.6397C293.861 19.7381 292.59 20.508 291.177 20.8388C286.318 21.721 281.526 22.9344 276.833 24.4707C276.196 24.6457 275.522 24.6386 274.889 24.4501C274.256 24.2617 273.688 23.8994 273.251 23.4045L265.537 13.6417C265.127 13.1564 264.568 12.821 263.947 12.6883C263.325 12.5556 262.678 12.6331 262.105 12.9086L238.431 25.3536C237.876 25.6626 237.439 26.1487 237.192 26.7344C236.944 27.3201 236.9 27.9718 237.065 28.5857L240.664 40.481C240.825 41.1222 240.8 41.7959 240.594 42.4239C240.388 43.0519 240.008 43.6086 239.498 44.0295C235.565 47.0091 231.836 50.2484 228.336 53.7256C227.262 54.7084 225.901 55.3215 224.454 55.475L204.062 56.4412C203.352 56.5038 202.663 56.7175 202.043 57.0681C201.422 57.4187 200.883 57.8979 200.463 58.4737ZM296.408 40.7475C316.1 41.5805 323.497 55.7415 312.935 72.4015C302.373 89.0615 277.866 101.84 258.19 101.007C238.515 100.174 231.101 86.0127 241.664 69.3527C252.226 52.6927 276.749 39.9145 296.408 40.7475Z" fill="white" fill-opacity="0.8"/>
<g opacity="0.55">
<path d="M192.5 123.314C192.376 123.235 192.273 123.126 192.2 122.998L185.902 110.953C185.81 110.751 185.793 110.522 185.854 110.308C185.915 110.094 186.05 109.909 186.236 109.787L207.111 97.1416C207.9 96.6161 208.552 95.9095 209.013 95.0806C209.474 94.2518 209.73 93.3247 209.76 92.3769C209.828 89.5614 210.237 86.7645 210.976 84.0469C211.188 83.3227 211.162 82.5494 210.901 81.8414C210.64 81.1333 210.158 80.5281 209.526 80.1151C209.083 79.8475 208.59 79.6719 208.077 79.5986L190.534 77.083L201.779 59.3068C202.331 58.5856 203.146 58.1124 204.045 57.9906L224.454 57.0243C226.284 56.852 228.007 56.0788 229.352 54.8252C232.801 51.3914 236.481 48.1964 240.364 45.2624C241.122 44.6482 241.684 43.8256 241.98 42.896C242.276 41.9664 242.293 40.9705 242.03 40.0311L238.431 28.1192C238.373 27.8502 238.399 27.5696 238.507 27.316C238.614 27.0624 238.797 26.8483 239.031 26.7031L262.855 14.2581C263.055 14.168 263.274 14.13 263.493 14.1475C263.711 14.1649 263.922 14.2374 264.105 14.3581C264.202 14.4124 264.287 14.4862 264.354 14.5746L272.068 24.3208C272.379 24.7117 272.757 25.0445 273.184 25.3037C273.793 25.7005 274.481 25.9597 275.201 26.0633C275.92 26.1669 276.653 26.1123 277.349 25.9035C281.972 24.3921 286.692 23.1953 291.477 22.3215C293.273 21.9321 294.889 20.9598 296.075 19.556L308.52 3.3625C308.824 3.02889 309.191 2.75856 309.6 2.56702C310.009 2.37548 310.451 2.26647 310.902 2.24626L331.877 3.12923L323.914 18.9729C323.508 19.7468 323.41 20.6454 323.638 21.4888C323.867 22.3322 324.406 23.0581 325.147 23.5211C325.387 23.6732 325.644 23.7962 325.913 23.8876C328.326 24.7452 330.639 25.8624 332.81 27.2196L333.493 27.6528H333.593C334.384 28.1321 335.274 28.4247 336.195 28.5084C337.116 28.5922 338.044 28.4648 338.908 28.1359L361.216 18.1399C361.353 18.0838 361.503 18.062 361.651 18.0766C361.799 18.0911 361.941 18.1414 362.065 18.2232C362.186 18.3073 362.288 18.415 362.365 18.5397L368.663 30.5849C368.759 30.7865 368.778 31.0163 368.717 31.231C368.655 31.4458 368.518 31.6307 368.329 31.7511L347.455 44.396C346.665 44.9215 346.013 45.6282 345.552 46.4571C345.091 47.2859 344.835 48.213 344.806 49.1608C344.737 51.9763 344.329 54.7732 343.589 57.4908C343.371 58.2147 343.395 58.9898 343.656 59.6992C343.918 60.4085 344.403 61.0134 345.039 61.4226C345.479 61.6972 345.973 61.8734 346.488 61.939L364.065 64.7712L352.819 82.4975C352.268 83.2186 351.453 83.6918 350.553 83.8136L330.145 84.7799C328.317 84.9619 326.597 85.7338 325.247 86.979C321.793 90.3727 318.114 93.5287 314.234 96.4252C313.477 97.0395 312.915 97.8621 312.619 98.7916C312.323 99.7212 312.305 100.717 312.568 101.657L316.167 113.552C316.226 113.821 316.199 114.101 316.092 114.355C315.985 114.609 315.801 114.823 315.567 114.968L291.743 127.446C291.544 127.536 291.324 127.574 291.106 127.557C290.887 127.539 290.677 127.467 290.494 127.346C290.393 127.297 290.307 127.223 290.244 127.13L282.53 117.383C282.219 116.993 281.841 116.66 281.414 116.401C280.805 116.004 280.117 115.745 279.398 115.641C278.679 115.537 277.945 115.592 277.249 115.801C272.626 117.312 267.906 118.509 263.122 119.383C261.326 119.772 259.709 120.744 258.523 122.148L246.078 138.342C245.774 138.675 245.407 138.946 244.998 139.137C244.59 139.329 244.147 139.438 243.696 139.458L222.721 138.575L230.685 122.731C231.089 121.956 231.185 121.056 230.953 120.212C230.721 119.368 230.179 118.644 229.435 118.183C229.199 118.035 228.948 117.912 228.685 117.817C226.275 116.952 223.963 115.836 221.788 114.485L221.105 114.035H221.005C220.215 113.554 219.324 113.261 218.402 113.18C217.481 113.099 216.553 113.232 215.691 113.568L193.383 123.481C193.245 123.537 193.096 123.559 192.948 123.544C192.8 123.53 192.657 123.48 192.533 123.398M311.186 43.4298C306.739 40.7991 301.675 39.3909 296.508 39.3481C276.366 38.4984 251.193 51.6598 240.381 68.6863C236.582 74.6839 234.866 80.6482 235.383 85.9628C235.648 88.5492 236.511 91.0385 237.905 93.2333C239.299 95.4281 241.184 97.2682 243.413 98.6077C247.865 101.225 252.926 102.627 258.09 102.673C278.232 103.522 303.405 90.361 314.218 73.3345C321.898 61.2393 320.682 49.494 311.119 43.4298M191.634 124.781C191.977 124.994 192.366 125.121 192.769 125.153C193.172 125.185 193.577 125.12 193.949 124.964L216.257 114.968C216.885 114.738 217.557 114.651 218.223 114.715C218.889 114.778 219.532 114.99 220.105 115.334H220.189L220.888 115.801C223.154 117.224 225.567 118.397 228.086 119.299C228.249 119.36 228.405 119.439 228.552 119.533C228.97 119.786 229.274 120.19 229.401 120.662C229.528 121.134 229.469 121.636 229.235 122.065L221.222 138.009C221.02 138.304 220.942 138.666 221.004 139.018C221.066 139.37 221.264 139.683 221.555 139.891C221.832 140.058 222.148 140.15 222.471 140.158L243.563 141.041C244.256 141.032 244.94 140.88 245.571 140.593C246.202 140.306 246.766 139.891 247.228 139.375L259.69 123.181C260.644 122.028 261.958 121.23 263.421 120.915C268.277 120.017 273.068 118.804 277.766 117.284C278.243 117.145 278.744 117.11 279.235 117.182C279.727 117.254 280.197 117.43 280.615 117.7C280.892 117.876 281.14 118.095 281.348 118.35L289.061 128.096C289.235 128.322 289.45 128.514 289.694 128.662C290.108 128.926 290.582 129.08 291.072 129.109C291.562 129.138 292.051 129.042 292.493 128.829L316.317 116.367C316.873 116.058 317.309 115.572 317.557 114.987C317.804 114.401 317.849 113.749 317.683 113.135L314.085 101.24C313.924 100.599 313.948 99.925 314.154 99.297C314.361 98.669 314.741 98.1123 315.251 97.6914C319.187 94.7167 322.917 91.4771 326.413 87.9953C327.487 87.0125 328.847 86.3995 330.295 86.246L350.687 85.2797C351.381 85.2097 352.052 84.9921 352.656 84.6416C353.259 84.291 353.78 83.8156 354.185 83.2472L365.514 65.421C365.636 65.277 365.726 65.1091 365.778 64.9282C365.831 64.7473 365.845 64.5574 365.82 64.3706C365.795 64.1838 365.731 64.0044 365.633 63.8439C365.534 63.6833 365.403 63.5452 365.247 63.4385C365.01 63.2906 364.742 63.1993 364.464 63.1719L346.721 60.6395C346.426 60.5985 346.142 60.4964 345.888 60.3397C345.522 60.1121 345.242 59.7695 345.091 59.3656C344.94 58.9616 344.928 58.5191 345.055 58.1072C345.827 55.2531 346.252 52.3165 346.322 49.3607C346.351 48.6761 346.538 48.0075 346.867 47.4066C347.196 46.8056 347.66 46.2886 348.221 45.8955L369.096 33.2339C369.62 32.9114 370.004 32.4032 370.171 31.8104C370.338 31.2176 370.275 30.5838 369.995 30.0351L363.698 17.99C363.502 17.6235 363.215 17.3136 362.865 17.0903C362.525 16.8705 362.136 16.7374 361.732 16.7025C361.328 16.6677 360.922 16.7322 360.549 16.8904L338.242 26.8864C337.609 27.113 336.934 27.1962 336.266 27.1299C335.597 27.0636 334.952 26.8496 334.376 26.5032C334.16 26.3366 333.91 26.1867 333.677 26.0367C331.411 24.6138 328.998 23.4407 326.48 22.5381L326.013 22.3215C325.597 22.0624 325.296 21.655 325.169 21.1818C325.042 20.7086 325.1 20.2049 325.33 19.7726L333.343 3.82898C333.545 3.53396 333.623 3.17159 333.561 2.81966C333.499 2.46772 333.301 2.15423 333.01 1.94639C332.736 1.77595 332.417 1.68913 332.094 1.6965L311.002 0.796844C310.307 0.802915 309.62 0.95422 308.986 1.2411C308.352 1.52799 307.784 1.94413 307.321 2.46284L294.876 18.6564C293.928 19.7548 292.656 20.5247 291.244 20.8555C286.385 21.7377 281.592 22.9511 276.899 24.4874C276.418 24.6188 275.914 24.6481 275.421 24.5735C274.927 24.499 274.455 24.322 274.034 24.0542C273.769 23.8746 273.528 23.6618 273.318 23.4211L265.604 13.6584C265.43 13.4319 265.215 13.2398 264.971 13.0919C264.557 12.8282 264.083 12.6745 263.593 12.6453C263.103 12.6162 262.614 12.7126 262.172 12.9253L238.431 25.3537C237.876 25.6627 237.439 26.1487 237.192 26.7344C236.944 27.3201 236.9 27.9718 237.065 28.5857L240.664 40.481C240.825 41.1222 240.8 41.7959 240.594 42.4239C240.388 43.052 240.008 43.6086 239.498 44.0295C235.565 47.0091 231.836 50.2484 228.336 53.7256C227.262 54.7084 225.901 55.3215 224.454 55.475L204.062 56.4412C203.366 56.5152 202.694 56.7343 202.089 57.0844C201.483 57.4346 200.958 57.9079 200.547 58.4738L189.234 76.3C189.113 76.444 189.023 76.6118 188.97 76.7927C188.917 76.9736 188.903 77.1636 188.928 77.3503C188.953 77.5371 189.017 77.7165 189.116 77.8771C189.215 78.0376 189.346 78.1757 189.501 78.2825C189.733 78.428 189.995 78.5191 190.267 78.549L207.944 81.0814C208.239 81.1225 208.523 81.2246 208.777 81.3813C209.13 81.6151 209.398 81.958 209.54 82.3579C209.681 82.7578 209.688 83.1928 209.56 83.597C208.788 86.4568 208.363 89.399 208.294 92.3602C208.263 93.0422 208.076 93.7081 207.746 94.3061C207.417 94.9041 206.954 95.4183 206.394 95.8088L185.519 108.47C184.995 108.793 184.611 109.301 184.444 109.894C184.277 110.487 184.34 111.12 184.62 111.669L190.917 123.714C191.117 124.082 191.403 124.397 191.75 124.631L191.634 124.781ZM310.286 44.7293C318.849 50.1604 320.399 60.7062 312.902 72.5181C302.339 89.1781 277.832 101.956 258.157 101.123C253.264 101.092 248.465 99.7699 244.246 97.2915C235.683 91.8604 234.133 81.3146 241.63 69.5193C252.193 52.8593 276.699 40.0645 296.375 40.8975C301.266 40.9454 306.06 42.266 310.286 44.7293Z" fill="white" fill-opacity="0.8"/>
</g>
<path d="M48.3742 40.7475C46.5774 41.0083 44.744 40.7056 43.1263 39.8812L31.8475 33.2172C31.0789 32.8204 30.2317 32.5997 29.3673 32.5709C28.5028 32.542 27.6428 32.7059 26.8495 33.0505L17.32 37.8153C17.0443 37.9354 16.7993 38.1161 16.6032 38.3439C16.407 38.5718 16.2648 38.841 16.1871 39.1314L13.205 51.9597C13.1312 52.3075 13.1632 52.6695 13.2968 52.999C13.4304 53.3286 13.6595 53.6106 13.9547 53.8089L17.7531 56.9743L6.25775 56.2913C5.6705 56.2353 5.08352 56.4008 4.61196 56.7552C4.1404 57.1096 3.81828 57.6275 3.70877 58.2072L0.709969 71.0354C0.675616 71.3008 0.675616 71.5696 0.709969 71.835L1.25975 79.2487C1.35942 80.0466 1.70232 80.7943 2.24182 81.3905C2.78132 81.9866 3.49127 82.4022 4.27521 82.5807L18.6861 85.3463C19.8992 85.6615 21.0008 86.3074 21.8682 87.2122L20.9685 87.812C20.5112 88.0998 20.1738 88.5438 20.0189 89.0615L16.8535 101.956C16.7821 102.339 16.8301 102.735 16.9911 103.089C17.152 103.444 17.418 103.741 17.7531 103.939L29.0819 111.852C29.8193 112.314 30.6475 112.611 31.51 112.723C32.3726 112.835 33.2491 112.76 34.0799 112.502L43.7927 108.887C45.5233 108.358 47.3802 108.416 49.0739 109.053C51.6229 110.136 54.2552 111.103 56.9208 111.952C57.7309 112.243 58.4625 112.718 59.058 113.34C59.6535 113.961 60.0967 114.712 60.3528 115.534L62.0188 122.315C62.2565 123.112 62.7111 123.827 63.332 124.38C63.9528 124.933 64.7152 125.302 65.534 125.447L81.5276 127.463C82.2075 127.552 82.8963 127.387 83.4621 127C84.0278 126.612 84.4306 126.03 84.5931 125.364L86.6256 116.65C87.1603 116.222 87.8093 115.962 88.4915 115.901C90.8661 115.737 93.2299 115.442 95.572 115.018C97.3704 114.772 99.201 115.08 100.82 115.901L112.082 122.565C112.85 122.963 113.698 123.184 114.562 123.213C115.427 123.242 116.287 123.077 117.08 122.731L126.593 117.967C126.86 117.853 127.098 117.683 127.291 117.467C127.484 117.251 127.627 116.995 127.709 116.717L130.725 103.806C130.78 103.459 130.738 103.104 130.603 102.78C130.467 102.456 130.244 102.177 129.958 101.973L126.16 98.8076L137.672 99.5073C138.236 99.5539 138.798 99.4009 139.261 99.0751C139.724 98.7494 140.058 98.2714 140.204 97.7247L143.469 84.7632C143.555 84.4828 143.589 84.1893 143.569 83.8969L143.02 76.4832C142.917 75.6893 142.575 74.9454 142.039 74.3503C141.503 73.7553 140.8 73.3371 140.021 73.1512L125.593 70.3856C124.378 70.0754 123.275 69.4287 122.411 68.5197L123.311 67.92C123.545 67.7817 123.749 67.5987 123.912 67.3814C124.075 67.1641 124.193 66.9169 124.261 66.6538L127.226 53.8922V53.7423C127.283 53.3702 127.225 52.9898 127.062 52.6508C126.898 52.3119 126.636 52.0303 126.31 51.843L114.981 43.9129C114.241 43.4574 113.412 43.1652 112.55 43.0561C111.688 42.9469 110.813 43.0232 109.983 43.2798L100.154 46.895C98.4221 47.4263 96.5627 47.3618 94.8723 46.7118C92.3233 45.6289 89.691 44.6626 87.0254 43.8296C86.2197 43.5309 85.4923 43.0535 84.8978 42.433C84.3034 41.8126 83.8574 41.0654 83.5935 40.2477L81.9275 33.4504C81.6876 32.6536 81.2297 31.9396 80.6057 31.3891C79.9816 30.8386 79.2161 30.4735 78.3956 30.335L62.4019 28.3024C62.0318 28.256 61.6561 28.2836 61.2967 28.3836C60.9373 28.4836 60.6013 28.6541 60.3084 28.885C60.0154 29.116 59.7712 29.4029 59.5901 29.729C59.409 30.0552 59.2945 30.414 59.2532 30.7848L58.5868 36.8824C58.4731 37.6637 58.0984 38.3836 57.5238 38.925C56.9491 39.4664 56.2081 39.7975 55.4214 39.8645C53.0578 40.028 50.7051 40.3227 48.3742 40.7475ZM95.7719 86.9956C84.5431 92.6267 65.4841 90.211 53.2056 81.6311C49.3268 79.1618 46.2479 75.6199 44.3425 71.4352C45.5469 70.3974 46.8795 69.5183 48.3076 68.8196C59.5198 63.1885 78.5788 65.6042 90.8572 74.1841C94.7353 76.6689 97.813 80.221 99.7204 84.4134C98.5222 85.4423 97.1948 86.3104 95.7719 86.9956Z" fill="#128A5C" fill-opacity="0.8"/>
<path opacity="0.2" d="M48.3742 40.7475C46.5774 41.0083 44.744 40.7056 43.1263 39.8812L31.8475 33.2172C31.0789 32.8204 30.2317 32.5997 29.3673 32.5709C28.5028 32.542 27.6428 32.7059 26.8495 33.0505L17.32 37.8153C17.0443 37.9354 16.7993 38.1161 16.6032 38.3439C16.407 38.5718 16.2648 38.841 16.1871 39.1314L13.205 51.9597C13.1312 52.3075 13.1632 52.6695 13.2968 52.999C13.4304 53.3286 13.6595 53.6106 13.9547 53.8089L17.7531 56.9743L6.25775 56.2913C5.6705 56.2353 5.08352 56.4008 4.61196 56.7552C4.1404 57.1096 3.81828 57.6275 3.70877 58.2072L0.709969 71.0354C0.675616 71.3008 0.675616 71.5696 0.709969 71.835L1.25975 79.2487C1.35942 80.0466 1.70232 80.7943 2.24182 81.3905C2.78132 81.9866 3.49127 82.4022 4.27521 82.5807L18.6861 85.3463C19.8992 85.6615 21.0008 86.3074 21.8682 87.2122L20.9685 87.812C20.5112 88.0998 20.1738 88.5438 20.0189 89.0615L16.8535 101.956C16.7821 102.339 16.8301 102.735 16.9911 103.089C17.152 103.444 17.418 103.741 17.7531 103.939L29.0819 111.852C29.8193 112.314 30.6475 112.611 31.51 112.723C32.3726 112.835 33.2491 112.76 34.0799 112.502L43.7927 108.887C45.5233 108.358 47.3802 108.416 49.0739 109.053C51.6229 110.136 54.2552 111.103 56.9208 111.952C57.7309 112.243 58.4625 112.718 59.058 113.34C59.6535 113.961 60.0967 114.712 60.3528 115.534L62.0188 122.315C62.2565 123.112 62.7111 123.827 63.332 124.38C63.9528 124.933 64.7152 125.302 65.534 125.447L81.5276 127.463C82.2075 127.552 82.8963 127.387 83.4621 127C84.0278 126.612 84.4306 126.03 84.5931 125.364L86.6256 116.65C87.1603 116.222 87.8093 115.962 88.4915 115.901C90.8661 115.737 93.2299 115.442 95.572 115.018C97.3704 114.772 99.201 115.08 100.82 115.901L112.082 122.565C112.85 122.963 113.698 123.184 114.562 123.213C115.427 123.242 116.287 123.077 117.08 122.731L126.593 117.967C126.86 117.853 127.098 117.683 127.291 117.467C127.484 117.251 127.627 116.995 127.709 116.717L130.725 103.806C130.78 103.459 130.738 103.104 130.603 102.78C130.467 102.456 130.244 102.177 129.958 101.973L126.16 98.8076L137.672 99.5073C138.236 99.5539 138.798 99.4009 139.261 99.0751C139.724 98.7494 140.058 98.2714 140.204 97.7247L143.469 84.7632C143.555 84.4828 143.589 84.1893 143.569 83.8969L143.02 76.4832C142.917 75.6893 142.575 74.9454 142.039 74.3503C141.503 73.7553 140.8 73.3371 140.021 73.1512L125.593 70.3856C124.378 70.0754 123.275 69.4287 122.411 68.5197L123.311 67.92C123.545 67.7817 123.749 67.5987 123.912 67.3814C124.075 67.1641 124.193 66.9169 124.261 66.6538L127.226 53.8922V53.7423C127.283 53.3702 127.225 52.9898 127.062 52.6508C126.898 52.3119 126.636 52.0303 126.31 51.843L114.981 43.9129C114.241 43.4574 113.412 43.1652 112.55 43.0561C111.688 42.9469 110.813 43.0232 109.983 43.2798L100.154 46.895C98.4221 47.4263 96.5627 47.3618 94.8723 46.7118C92.3233 45.6289 89.691 44.6626 87.0254 43.8296C86.2197 43.5309 85.4923 43.0535 84.8978 42.433C84.3034 41.8126 83.8574 41.0654 83.5935 40.2477L81.9275 33.4504C81.6876 32.6536 81.2297 31.9396 80.6057 31.3891C79.9816 30.8386 79.2161 30.4735 78.3956 30.335L62.4019 28.3024C62.0318 28.256 61.6561 28.2836 61.2967 28.3836C60.9373 28.4836 60.6013 28.6541 60.3084 28.885C60.0154 29.116 59.7712 29.4029 59.5901 29.729C59.409 30.0552 59.2945 30.414 59.2532 30.7848L58.5868 36.8824C58.4731 37.6637 58.0984 38.3836 57.5238 38.925C56.9491 39.4664 56.2081 39.7975 55.4214 39.8645C53.0578 40.028 50.7051 40.3227 48.3742 40.7475ZM95.7719 86.9956C84.5431 92.6267 65.4841 90.211 53.2056 81.6311C49.3268 79.1618 46.2479 75.6199 44.3425 71.4352C45.5469 70.3974 46.8795 69.5183 48.3076 68.8196C59.5198 63.1885 78.5788 65.6042 90.8572 74.1841C94.7353 76.6689 97.813 80.221 99.7204 84.4134C98.5222 85.4423 97.1948 86.3104 95.7719 86.9956Z" fill="white" fill-opacity="0.8"/>
<path opacity="0.1" d="M120.995 90.6275C120.749 90.9023 120.561 91.2235 120.441 91.5722C120.321 91.9208 120.272 92.29 120.297 92.6579C120.322 93.0258 120.42 93.385 120.586 93.7144C120.751 94.0438 120.981 94.3367 121.262 94.576L126.26 98.791L137.772 99.4907C138.336 99.5372 138.898 99.3843 139.361 99.0585C139.824 98.7327 140.158 98.2547 140.304 97.708L143.27 84.9798C143.105 85.5005 142.767 85.9493 142.313 86.2522C141.859 86.5552 141.315 86.694 140.771 86.6458L126.643 85.7795C125.818 85.803 125.012 86.0354 124.301 86.455C123.59 86.8745 122.997 87.4675 122.578 88.1785C122.117 89.0362 121.588 89.8552 120.995 90.6275ZM127.143 53.809C127.009 54.3321 126.673 54.7812 126.21 55.0585L119.113 59.7732C118.812 59.9699 118.558 60.2289 118.367 60.5325C118.176 60.8362 118.053 61.1775 118.005 61.5331C117.958 61.8888 117.988 62.2505 118.092 62.5936C118.197 62.9368 118.375 63.2533 118.613 63.5217C119.617 64.7314 120.525 66.0181 121.328 67.3702C121.599 67.8038 121.924 68.2013 122.295 68.553L123.211 67.9366C123.667 67.644 124 67.1931 124.144 66.6705L127.143 53.809Z" fill="black" fill-opacity="0.8"/>
<path opacity="0.1" d="M93.856 61.2726C104.452 68.6863 106.551 78.2658 99.7037 84.3467C97.8022 80.1602 94.7298 76.6133 90.8572 74.1342C78.5788 65.5376 59.5364 63.1219 48.2909 68.753C46.8694 69.4454 45.5471 70.3251 44.3591 71.3686C41.9434 65.3543 44.2092 59.4401 51.2897 55.8915C62.5352 50.2604 81.5776 52.6761 93.856 61.2726Z" fill="black" fill-opacity="0.8"/>
<path d="M59.4531 113.718C59.9028 114.237 60.2378 114.844 60.436 115.501L62.102 122.298C62.3981 123.318 63.0556 124.194 63.9513 124.764L66.9501 111.902C66.0626 111.324 65.4077 110.451 65.1008 109.437L63.4348 102.639C63.2496 101.979 62.9259 101.366 62.4852 100.84L59.4531 113.718ZM16.8535 101.956C16.7768 102.335 16.8226 102.728 16.9844 103.078C17.1462 103.429 17.4154 103.718 17.7531 103.906L29.0819 111.852C30.083 112.465 31.241 112.771 32.4139 112.735L35.4127 99.8739C34.2646 99.9024 33.1339 99.5892 32.164 98.9742L20.8519 91.0607C20.515 90.8641 20.2476 90.5678 20.0864 90.2127C19.9252 89.8575 19.8784 89.4611 19.9522 89.0782L16.8535 101.956ZM101.02 115.951L112.149 122.531C113.086 123.022 114.143 123.235 115.197 123.148L118.18 110.32C117.136 110.416 116.086 110.22 115.147 109.753L104.102 103.089L101.02 115.951ZM0.609967 70.9687C0.550259 71.2376 0.550259 71.5162 0.609967 71.7851L1.1431 79.1821C1.24507 79.9791 1.58873 80.7257 2.12786 81.3214C2.66699 81.9171 3.37569 82.3334 4.15855 82.5141L18.5694 85.2797C19.333 85.4636 20.0523 85.7977 20.6853 86.2626L23.6841 73.3845C23.0504 72.9243 22.331 72.5957 21.5682 72.4182L7.17401 69.7692C6.38899 69.5929 5.67774 69.178 5.13785 68.5814C4.59797 67.9849 4.2559 67.2359 4.15855 66.4372L3.62542 59.0235C3.60012 58.7631 3.60012 58.5009 3.62542 58.2405L0.609967 70.9687ZM13.105 51.9097C13.0408 52.2598 13.0771 52.6209 13.2098 52.9512C13.3425 53.2814 13.5661 53.5673 13.8547 53.7756L17.6698 56.9244L20.2688 57.1076C21.1014 57.0898 21.9152 56.8564 22.6306 56.43C23.346 56.0037 23.9386 55.3991 24.3505 54.6753C24.8357 53.8134 25.393 52.9941 26.0165 52.2262C26.1563 52.0228 26.2842 51.8114 26.3996 51.5932L26.5829 51.0934C26.6755 50.7574 26.7038 50.4069 26.6662 50.0605C26.6311 49.6292 26.4816 49.2151 26.2331 48.8609C26.1141 48.6303 25.943 48.4306 25.7332 48.2778L16.8868 40.8975C16.6866 40.7249 16.5076 40.5292 16.3537 40.3144C16.1971 40.0864 16.0998 39.823 16.0704 39.548C16.0538 39.3929 16.0538 39.2365 16.0704 39.0815L13.105 51.9097Z" fill="#128A5C" fill-opacity="0.8"/>
<path opacity="0.7" d="M59.4531 113.718C59.9028 114.237 60.2378 114.844 60.436 115.501L62.102 122.298C62.3981 123.318 63.0556 124.194 63.9513 124.764L66.9501 111.902C66.0626 111.324 65.4077 110.451 65.1008 109.437L63.4348 102.639C63.2496 101.979 62.9259 101.366 62.4852 100.84L59.4531 113.718ZM16.8535 101.956C16.7768 102.335 16.8226 102.728 16.9844 103.078C17.1462 103.429 17.4154 103.718 17.7531 103.906L29.0819 111.852C30.083 112.465 31.241 112.771 32.4139 112.735L35.4127 99.8739C34.2646 99.9024 33.1339 99.5892 32.164 98.9742L20.8519 91.0607C20.515 90.8641 20.2476 90.5678 20.0864 90.2127C19.9252 89.8575 19.8784 89.4611 19.9522 89.0782L16.8535 101.956ZM101.02 115.951L112.149 122.531C113.086 123.022 114.143 123.235 115.197 123.148L118.18 110.32C117.136 110.416 116.086 110.22 115.147 109.753L104.102 103.089L101.02 115.951ZM0.609967 70.9687C0.550259 71.2376 0.550259 71.5162 0.609967 71.7851L1.1431 79.1821C1.24507 79.9791 1.58873 80.7257 2.12786 81.3214C2.66699 81.9171 3.37569 82.3334 4.15855 82.5141L18.5694 85.2797C19.333 85.4636 20.0523 85.7977 20.6853 86.2626L23.6841 73.3845C23.0504 72.9243 22.331 72.5957 21.5682 72.4182L7.17401 69.7692C6.38899 69.5929 5.67774 69.178 5.13785 68.5814C4.59797 67.9849 4.2559 67.2359 4.15855 66.4372L3.62542 59.0235C3.60012 58.7631 3.60012 58.5009 3.62542 58.2405L0.609967 70.9687ZM13.105 51.9097C13.0408 52.2598 13.0771 52.6209 13.2098 52.9512C13.3425 53.2814 13.5661 53.5673 13.8547 53.7756L17.6698 56.9244L20.2688 57.1076C21.1014 57.0898 21.9152 56.8564 22.6306 56.43C23.346 56.0037 23.9386 55.3991 24.3505 54.6753C24.8357 53.8134 25.393 52.9941 26.0165 52.2262C26.1563 52.0228 26.2842 51.8114 26.3996 51.5932L26.5829 51.0934C26.6755 50.7574 26.7038 50.4069 26.6662 50.0605C26.6311 49.6292 26.4816 49.2151 26.2331 48.8609C26.1141 48.6303 25.943 48.4306 25.7332 48.2778L16.8868 40.8975C16.6866 40.7249 16.5076 40.5292 16.3537 40.3144C16.1971 40.0864 16.0998 39.823 16.0704 39.548C16.0538 39.3929 16.0538 39.2365 16.0704 39.0815L13.105 51.9097Z" fill="white" fill-opacity="0.8"/>
<path d="M26.8495 33.1172L17.32 37.8819C16.9854 37.9591 16.6828 38.1379 16.4537 38.3936C16.2246 38.6494 16.0801 38.9696 16.04 39.3107C15.9999 39.6517 16.0661 39.9967 16.2296 40.2987C16.3931 40.6006 16.6459 40.8447 16.9534 40.9974L25.7999 48.3778C26.0797 48.6171 26.3092 48.9097 26.4751 49.2384C26.641 49.5672 26.74 49.9255 26.7663 50.2928C26.7926 50.6601 26.7458 51.0289 26.6286 51.378C26.5113 51.727 26.3259 52.0493 26.0831 52.3262C25.4708 53.1023 24.9141 53.9207 24.4171 54.7752C24.0096 55.4979 23.4199 56.1012 22.7067 56.5251C21.9935 56.9489 21.1817 57.1785 20.3521 57.1909L6.24107 56.3412C5.88334 56.3074 5.52255 56.3533 5.18466 56.4756C4.84678 56.5978 4.54017 56.7934 4.28689 57.0483C4.03361 57.3031 3.83993 57.611 3.7198 57.9496C3.59967 58.2883 3.55606 58.6493 3.59211 59.0069L4.14189 66.4205C4.24386 67.2175 4.58755 67.9641 5.12668 68.5598C5.66581 69.1555 6.37448 69.5718 7.15735 69.7525L21.5683 72.5181C23.2865 72.983 24.7708 74.0695 25.7333 75.5669C26.5539 76.9034 27.4552 78.1886 28.4322 79.4154C28.6754 79.6798 28.8575 79.9946 28.9655 80.3373C29.0735 80.68 29.1048 81.0423 29.0571 81.3984C29.0094 81.7546 28.8839 82.0958 28.6895 82.3981C28.4952 82.7003 28.2367 82.9561 27.9324 83.1472L20.8519 87.8453C20.5588 87.9993 20.3133 88.2304 20.1421 88.5138C19.9708 88.7971 19.8803 89.1219 19.8803 89.453C19.8803 89.7841 19.9708 90.1088 20.1421 90.3922C20.3133 90.6756 20.5588 90.9067 20.8519 91.0607L32.1807 98.9909C32.9185 99.4512 33.7466 99.7474 34.609 99.8595C35.4713 99.9716 36.3477 99.897 37.1787 99.6406L46.8915 96.0254C48.622 95.4964 50.4789 95.555 52.1727 96.1919C54.7439 97.2838 57.3684 98.2457 60.0362 99.0741C60.8418 99.3744 61.5683 99.8547 62.1601 100.478C62.752 101.102 63.1937 101.852 63.4515 102.673L65.1175 109.453C65.3569 110.249 65.8121 110.963 66.4326 111.516C67.0531 112.069 67.8147 112.439 68.6328 112.585L84.643 114.601C85.0126 114.65 85.3882 114.624 85.7475 114.525C86.1069 114.425 86.4426 114.255 86.7347 114.023C87.0269 113.792 87.2695 113.504 87.4482 113.177C87.627 112.85 87.7381 112.49 87.7751 112.119L88.4582 106.021C88.5683 105.241 88.9397 104.522 89.5116 103.98C90.0835 103.439 90.8221 103.107 91.6069 103.039C93.9817 102.877 96.3456 102.583 98.6874 102.156C100.486 101.901 102.319 102.209 103.935 103.039L115.197 109.703C115.966 110.101 116.813 110.322 117.678 110.351C118.542 110.38 119.402 110.216 120.195 109.87L129.725 105.105C130.059 105.026 130.359 104.845 130.587 104.588C130.814 104.332 130.956 104.011 130.995 103.67C131.033 103.33 130.965 102.985 130.801 102.684C130.636 102.384 130.382 102.141 130.075 101.99L121.228 94.6259C120.67 94.1346 120.327 93.4433 120.274 92.7014C120.221 91.9595 120.462 91.2266 120.945 90.6609C121.563 89.8885 122.12 89.0697 122.611 88.2118C123.02 87.4937 123.607 86.8937 124.317 86.4703C125.026 86.047 125.834 85.8147 126.66 85.7961L140.787 86.6458C141.144 86.68 141.505 86.6344 141.842 86.512C142.179 86.3897 142.485 86.1938 142.737 85.9385C142.989 85.6833 143.181 85.3751 143.299 85.0363C143.417 84.6976 143.458 84.3368 143.42 83.9802L142.87 76.5665C142.767 75.7725 142.425 75.0287 141.889 74.4336C141.353 73.8386 140.65 73.4203 139.871 73.2345L125.443 70.4689C123.73 70.0033 122.251 68.9164 121.295 67.4201C120.474 66.0798 119.567 64.7943 118.579 63.5717C118.34 63.3048 118.161 62.9889 118.056 62.6459C117.951 62.303 117.922 61.9412 117.971 61.5858C118.02 61.2305 118.147 60.8902 118.341 60.5887C118.535 60.2871 118.793 60.0316 119.096 59.8399L126.176 55.1417C126.47 54.9878 126.715 54.7566 126.886 54.4732C127.057 54.1899 127.148 53.8651 127.148 53.534C127.148 53.203 127.057 52.8781 126.886 52.5948C126.715 52.3114 126.47 52.0803 126.176 51.9264L114.848 43.9962C114.108 43.5407 113.279 43.2485 112.417 43.1393C111.555 43.0302 110.68 43.1064 109.85 43.3631L100.153 46.895C98.4211 47.4186 96.5642 47.3542 94.8723 46.7118C92.3233 45.6289 89.691 44.6626 87.0254 43.8296C86.2197 43.5309 85.4922 43.0535 84.8978 42.433C84.3033 41.8126 83.8574 41.0654 83.5934 40.2477L81.9274 33.4504C81.6875 32.6536 81.2297 31.9396 80.6056 31.3891C79.9816 30.8386 79.2161 30.4735 78.3955 30.335L62.4019 28.3024C62.0318 28.256 61.6561 28.2836 61.2966 28.3836C60.9372 28.4836 60.6013 28.6541 60.3083 28.885C60.0154 29.116 59.7712 29.4029 59.5901 29.729C59.4089 30.0552 59.2944 30.414 59.2532 30.7848L58.5868 36.8824C58.4731 37.6637 58.0984 38.3836 57.5237 38.925C56.949 39.4664 56.2081 39.7975 55.4214 39.8645C53.0522 40.0273 50.6939 40.3221 48.3575 40.7475C46.5607 41.0083 44.7273 40.7056 43.1096 39.8812L31.8308 33.2172C31.0595 32.8336 30.2127 32.6257 29.3514 32.6084C28.49 32.5911 27.6356 32.7649 26.8495 33.1172ZM93.856 61.3226C106.134 69.9191 106.984 81.4479 95.7719 87.0623C84.5597 92.6767 65.484 90.2777 53.2056 81.6978C40.9272 73.1179 40.0775 61.5725 51.3063 55.958C62.5352 50.3436 81.5776 52.6761 93.856 61.256V61.3226Z" fill="#128A5C" fill-opacity="0.8"/>
<path opacity="0.55" d="M26.8495 33.1172L17.32 37.8819C16.9854 37.9591 16.6828 38.1379 16.4537 38.3936C16.2246 38.6494 16.0801 38.9696 16.04 39.3107C15.9999 39.6517 16.0661 39.9967 16.2296 40.2987C16.3931 40.6006 16.6459 40.8447 16.9534 40.9974L25.7999 48.3778C26.0797 48.6171 26.3092 48.9097 26.4751 49.2384C26.641 49.5672 26.74 49.9255 26.7663 50.2928C26.7926 50.6601 26.7458 51.0289 26.6286 51.378C26.5113 51.727 26.3259 52.0493 26.0831 52.3262C25.4708 53.1023 24.9141 53.9207 24.4171 54.7752C24.0096 55.4979 23.4199 56.1012 22.7067 56.5251C21.9935 56.9489 21.1817 57.1785 20.3521 57.1909L6.24107 56.3412C5.88334 56.3074 5.52255 56.3533 5.18466 56.4756C4.84678 56.5978 4.54017 56.7934 4.28689 57.0483C4.03361 57.3031 3.83993 57.611 3.7198 57.9496C3.59967 58.2883 3.55606 58.6493 3.59211 59.0069L4.14189 66.4205C4.24386 67.2175 4.58755 67.9641 5.12668 68.5598C5.66581 69.1555 6.37448 69.5718 7.15735 69.7525L21.5683 72.5181C23.2865 72.983 24.7708 74.0695 25.7333 75.5669C26.5539 76.9034 27.4552 78.1886 28.4322 79.4154C28.6754 79.6798 28.8575 79.9946 28.9655 80.3373C29.0735 80.68 29.1048 81.0423 29.0571 81.3984C29.0094 81.7546 28.8839 82.0958 28.6895 82.3981C28.4952 82.7003 28.2367 82.9561 27.9324 83.1472L20.8519 87.8453C20.5588 87.9993 20.3133 88.2304 20.1421 88.5138C19.9708 88.7971 19.8803 89.1219 19.8803 89.453C19.8803 89.7841 19.9708 90.1088 20.1421 90.3922C20.3133 90.6756 20.5588 90.9067 20.8519 91.0607L32.1807 98.9909C32.9185 99.4512 33.7466 99.7474 34.609 99.8595C35.4713 99.9716 36.3477 99.897 37.1787 99.6406L46.8915 96.0254C48.622 95.4964 50.4789 95.555 52.1727 96.1919C54.7439 97.2838 57.3684 98.2457 60.0362 99.0741C60.8418 99.3744 61.5683 99.8547 62.1601 100.478C62.752 101.102 63.1937 101.852 63.4515 102.673L65.1175 109.453C65.3569 110.249 65.8121 110.963 66.4326 111.516C67.0531 112.069 67.8147 112.439 68.6328 112.585L84.643 114.601C85.0126 114.65 85.3882 114.624 85.7475 114.525C86.1069 114.425 86.4426 114.255 86.7347 114.023C87.0269 113.792 87.2695 113.504 87.4482 113.177C87.627 112.85 87.7381 112.49 87.7751 112.119L88.4582 106.021C88.5683 105.241 88.9397 104.522 89.5116 103.98C90.0835 103.439 90.8221 103.107 91.6069 103.039C93.9817 102.877 96.3456 102.583 98.6874 102.156C100.486 101.901 102.319 102.209 103.935 103.039L115.197 109.703C115.966 110.101 116.813 110.322 117.678 110.351C118.542 110.38 119.402 110.216 120.195 109.87L129.725 105.105C130.059 105.026 130.359 104.845 130.587 104.588C130.814 104.332 130.956 104.011 130.995 103.67C131.033 103.33 130.965 102.985 130.801 102.684C130.636 102.384 130.382 102.141 130.075 101.99L121.228 94.6259C120.67 94.1346 120.327 93.4433 120.274 92.7014C120.221 91.9595 120.462 91.2266 120.945 90.6609C121.563 89.8885 122.12 89.0697 122.611 88.2118C123.02 87.4937 123.607 86.8937 124.317 86.4703C125.026 86.047 125.834 85.8147 126.66 85.7961L140.787 86.6458C141.144 86.68 141.505 86.6344 141.842 86.512C142.179 86.3897 142.485 86.1938 142.737 85.9385C142.989 85.6833 143.181 85.3751 143.299 85.0363C143.417 84.6976 143.458 84.3368 143.42 83.9802L142.87 76.5665C142.767 75.7725 142.425 75.0287 141.889 74.4336C141.353 73.8386 140.65 73.4203 139.871 73.2345L125.443 70.4689C123.73 70.0033 122.251 68.9164 121.295 67.4201C120.474 66.0798 119.567 64.7943 118.579 63.5717C118.34 63.3048 118.161 62.9889 118.056 62.6459C117.951 62.303 117.922 61.9412 117.971 61.5858C118.02 61.2305 118.147 60.8902 118.341 60.5887C118.535 60.2871 118.793 60.0316 119.096 59.8399L126.176 55.1417C126.47 54.9878 126.715 54.7566 126.886 54.4732C127.057 54.1899 127.148 53.8651 127.148 53.534C127.148 53.203 127.057 52.8781 126.886 52.5948C126.715 52.3114 126.47 52.0803 126.176 51.9264L114.848 43.9962C114.108 43.5407 113.279 43.2485 112.417 43.1393C111.555 43.0302 110.68 43.1064 109.85 43.3631L100.153 46.895C98.4211 47.4186 96.5642 47.3542 94.8723 46.7118C92.3233 45.6289 89.691 44.6626 87.0254 43.8296C86.2197 43.5309 85.4922 43.0535 84.8978 42.433C84.3033 41.8126 83.8574 41.0654 83.5934 40.2477L81.9274 33.4504C81.6875 32.6536 81.2297 31.9396 80.6056 31.3891C79.9816 30.8386 79.2161 30.4735 78.3955 30.335L62.4019 28.3024C62.0318 28.256 61.6561 28.2836 61.2966 28.3836C60.9372 28.4836 60.6013 28.6541 60.3083 28.885C60.0154 29.116 59.7712 29.4029 59.5901 29.729C59.4089 30.0552 59.2944 30.414 59.2532 30.7848L58.5868 36.8824C58.4731 37.6637 58.0984 38.3836 57.5237 38.925C56.949 39.4664 56.2081 39.7975 55.4214 39.8645C53.0522 40.0273 50.6939 40.3221 48.3575 40.7475C46.5607 41.0083 44.7273 40.7056 43.1096 39.8812L31.8308 33.2172C31.0595 32.8336 30.2127 32.6257 29.3514 32.6084C28.49 32.5911 27.6356 32.7649 26.8495 33.1172ZM93.856 61.3226C106.134 69.9191 106.984 81.4479 95.7719 87.0623C84.5597 92.6767 65.484 90.2777 53.2056 81.6978C40.9272 73.1179 40.0775 61.5725 51.3063 55.958C62.5352 50.3436 81.5776 52.6761 93.856 61.256V61.3226Z" fill="white" fill-opacity="0.8"/>
<g opacity="0.55">
<path d="M5.95787 66.5538C5.94214 66.4433 5.94214 66.3311 5.95787 66.2206L5.40808 58.8236C5.39493 58.7112 5.40435 58.5973 5.43582 58.4886C5.46729 58.3799 5.52017 58.2785 5.59134 58.1905C5.67682 58.1206 5.77532 58.0685 5.88115 58.037C5.98697 58.0055 6.09799 57.9954 6.20776 58.0072L20.3354 58.8569C21.4927 58.8547 22.6285 58.545 23.6268 57.9595C24.625 57.374 25.4497 56.5338 26.0165 55.5249C26.4539 54.7355 26.9554 53.9832 27.5159 53.2758C27.9934 52.6907 28.3217 51.9984 28.4726 51.2584C28.6235 50.5184 28.5925 49.7528 28.3822 49.0275C28.1316 48.2057 27.645 47.4757 26.9828 46.9284L18.1363 39.5479L18.003 39.4147L18.153 39.3314L27.6825 34.5499C28.2162 34.3398 28.7874 34.2418 29.3606 34.2618C29.9338 34.2819 30.4968 34.4197 31.0145 34.6666L42.2933 41.3306C44.2672 42.3663 46.5199 42.7456 48.7241 42.4135C51.0059 42.0044 53.3084 41.7208 55.6213 41.5638C56.8086 41.4645 57.9263 40.9628 58.7897 40.1418C59.6531 39.3208 60.2104 38.2297 60.3694 37.0489L61.0525 30.9347C61.0657 30.7941 61.108 30.6578 61.1769 30.5344C61.2457 30.4111 61.3395 30.3034 61.4523 30.2184C61.5626 30.127 61.6905 30.0591 61.828 30.019C61.9655 29.9789 62.1098 29.9674 62.252 29.9851L78.2456 32.0176C78.7159 32.1199 79.1523 32.3403 79.5138 32.658C79.8752 32.9757 80.1497 33.3803 80.3114 33.8336L81.9774 40.6309C81.985 40.714 81.985 40.7976 81.9774 40.8808C82.3415 41.9331 82.9379 42.8899 83.7224 43.6802C84.5069 44.4705 85.4593 45.0739 86.5089 45.4456C89.1412 46.2786 91.7235 47.2282 94.2059 48.2778C96.3071 49.091 98.6231 49.1615 100.77 48.4777L110.466 44.8625C111.591 44.5657 112.787 44.7212 113.798 45.2957L125.127 53.2258C125.26 53.3091 125.31 53.3758 125.343 53.3924L125.127 53.5757L118.046 58.2904C117.293 58.7834 116.722 59.5099 116.421 60.3586C116.12 61.2072 116.106 62.1311 116.38 62.9886C116.56 63.5569 116.843 64.0877 117.213 64.5546C118.153 65.7128 119.016 66.9317 119.796 68.2032C120.997 70.1307 122.904 71.512 125.11 72.0516L139.521 74.8172C139.88 74.9198 140.209 75.1085 140.479 75.3668C140.749 75.6252 140.952 75.9455 141.07 76.2999C141.077 76.4109 141.077 76.5221 141.07 76.6331L141.62 84.0468C141.634 84.1579 141.623 84.2707 141.589 84.3772C141.554 84.4837 141.497 84.5813 141.42 84.6632C141.338 84.7386 141.24 84.7955 141.134 84.83C141.027 84.8644 140.915 84.8758 140.804 84.8632L126.676 84.0135C125.521 84.0152 124.387 84.3249 123.392 84.9105C122.396 85.4962 121.575 86.3367 121.012 87.3455C120.568 88.1351 120.061 88.8873 119.496 89.5946C119.024 90.1825 118.7 90.8755 118.552 91.615C118.404 92.3544 118.436 93.1186 118.646 93.8429C118.884 94.6705 119.373 95.4038 120.046 95.942L128.892 103.322L129.025 103.456L128.859 103.556L119.329 108.32C118.796 108.535 118.225 108.635 117.651 108.615C117.077 108.595 116.514 108.455 115.997 108.204L104.735 101.54C102.756 100.503 100.497 100.123 98.2876 100.457C96.0115 100.867 93.7145 101.151 91.407 101.307C90.2164 101.409 89.0961 101.913 88.2301 102.737C87.3642 103.561 86.8042 104.654 86.6422 105.838L85.9758 111.936C85.961 112.078 85.918 112.216 85.8494 112.342C85.7808 112.468 85.6878 112.579 85.576 112.669C85.3456 112.838 85.0605 112.915 84.7763 112.885L68.7661 110.853C68.2976 110.751 67.8631 110.53 67.5043 110.212C67.1454 109.894 66.8743 109.49 66.7169 109.037L65.0509 102.24C65.0584 102.156 65.0584 102.073 65.0509 101.99C64.6896 100.938 64.0962 99.9821 63.3145 99.1918C62.5329 98.4015 61.5832 97.7976 60.536 97.4248C57.9037 96.5918 55.3048 95.6422 52.8391 94.5926C50.736 93.7886 48.4231 93.7182 46.2751 94.3927L36.5623 98.0079C35.9928 98.1663 35.3974 98.2095 34.811 98.1351C34.2246 98.0608 33.6589 97.8702 33.147 97.5747L21.8182 89.6446L21.6183 89.478C21.6807 89.4062 21.7537 89.3444 21.8348 89.2947L28.9153 84.5966C29.6681 84.0989 30.2379 83.3693 30.5386 82.5185C30.8392 81.6676 30.8542 80.742 30.5813 79.8818C30.4079 79.3107 30.125 78.7788 29.7483 78.3158C28.8045 77.1644 27.9469 75.9449 27.1827 74.6672C25.9738 72.747 24.0697 71.3681 21.8681 70.8188L7.50723 68.1032C7.14527 68.006 6.81361 67.8192 6.54283 67.5601C6.27206 67.3009 6.0709 66.9778 5.95787 66.6204M104.785 72.1682C103.452 67.7533 100.02 63.5217 94.789 59.9065C82.0607 51.01 62.1854 48.5277 50.4567 54.4087C43.2763 58.0072 40.1941 64.1548 42.2267 70.8521C43.5595 75.267 46.9914 79.4987 52.2227 83.1139C64.9509 92.0103 84.8263 94.4926 96.5383 88.6117C103.735 85.0131 106.817 78.8656 104.785 72.1682ZM4.29187 67.1702C4.49711 67.8296 4.87099 68.4239 5.37651 68.8944C5.88203 69.3648 6.50165 69.6951 7.17404 69.8525L21.5849 72.618C23.3032 73.0829 24.7875 74.1695 25.7499 75.6669C26.5705 77.0033 27.4719 78.2885 28.4489 79.5153C28.6833 79.8027 28.8638 80.13 28.982 80.4816C29.1369 80.992 29.1197 81.5392 28.9331 82.039C28.7464 82.5387 28.4007 82.9632 27.9491 83.2471L20.8686 87.9453C20.5045 88.1402 20.2155 88.4504 20.0466 88.8273C19.8778 89.2041 19.8388 89.6263 19.9356 90.0278C20.1003 90.4954 20.4171 90.8943 20.8352 91.1606L32.164 99.0908C32.9018 99.5511 33.73 99.8474 34.5923 99.9595C35.4547 100.072 36.3311 99.9969 37.162 99.7405L46.8748 96.1253C48.6054 95.5964 50.4623 95.655 52.156 96.2919C54.7273 97.3838 57.3518 98.3457 60.0196 99.1741C60.7905 99.4705 61.4878 99.9309 62.0631 100.523C62.6385 101.116 63.0781 101.827 63.3516 102.606C63.3609 102.661 63.3609 102.718 63.3516 102.773L65.0176 109.553V109.703C65.2775 110.464 65.7356 111.141 66.3448 111.665C66.954 112.19 67.6921 112.542 68.4828 112.685L84.4931 114.701C84.8627 114.75 85.2383 114.724 85.5976 114.625C85.957 114.525 86.2927 114.355 86.5848 114.123C86.877 113.892 87.1196 113.604 87.2983 113.277C87.4771 112.95 87.5882 112.59 87.6252 112.219L88.3082 106.121C88.4184 105.341 88.7897 104.622 89.3616 104.08C89.9335 103.539 90.6722 103.207 91.457 103.139C93.8318 102.977 96.1957 102.683 98.5375 102.256C100.336 102.001 102.17 102.309 103.785 103.139L115.048 109.803C115.816 110.201 116.663 110.422 117.528 110.451C118.392 110.48 119.253 110.316 120.046 109.97L129.575 105.205C129.981 105.057 130.318 104.764 130.521 104.383C130.724 104.002 130.779 103.559 130.675 103.139C130.533 102.724 130.272 102.359 129.925 102.09L121.078 94.7259C120.681 94.3861 120.387 93.9416 120.229 93.443C120.102 92.9832 120.087 92.4997 120.186 92.033C120.284 91.5663 120.493 91.13 120.795 90.7608C121.413 89.9884 121.97 89.1697 122.461 88.3118C122.87 87.5937 123.458 86.9937 124.167 86.5703C124.877 86.1469 125.684 85.9146 126.51 85.8961L140.637 86.7457C140.994 86.78 141.355 86.7343 141.692 86.612C142.029 86.4896 142.335 86.2937 142.587 86.0385C142.839 85.7832 143.031 85.475 143.149 85.1363C143.267 84.7975 143.308 84.4368 143.27 84.0801L142.72 76.6665C142.706 76.4297 142.667 76.1952 142.603 75.9667C142.398 75.3074 142.024 74.713 141.519 74.2426C141.013 73.7721 140.393 73.4418 139.721 73.2844L125.293 70.5189C123.58 70.0533 122.101 68.9664 121.145 67.4701C120.324 66.1298 119.417 64.8442 118.43 63.6217C118.2 63.3336 118.025 63.0062 117.913 62.6554C117.752 62.1453 117.767 61.596 117.954 61.0949C118.141 60.5938 118.49 60.1697 118.946 59.8898L126.026 55.1917C126.392 54.9986 126.681 54.6878 126.847 54.3098C127.013 53.9319 127.047 53.5088 126.943 53.1092C126.791 52.6395 126.478 52.2384 126.06 51.9763L114.731 44.0462C113.991 43.5906 113.162 43.2985 112.3 43.1893C111.438 43.0801 110.563 43.1564 109.733 43.4131L100.153 46.895C98.4221 47.4263 96.5626 47.3618 94.8723 46.7118C92.3233 45.6289 89.691 44.6626 87.0254 43.8296C86.2545 43.5332 85.5572 43.0728 84.9818 42.4802C84.4065 41.8876 83.9669 41.177 83.6934 40.3976V40.2477L82.0274 33.4504V33.3004C81.7652 32.54 81.3039 31.8637 80.6915 31.3421C80.0791 30.8206 79.338 30.4728 78.5455 30.335L62.5519 28.3024C62.1817 28.256 61.806 28.2836 61.4466 28.3836C61.0872 28.4836 60.7513 28.6541 60.4583 28.885C60.1653 29.116 59.9212 29.4029 59.7401 29.729C59.5589 30.0552 59.4444 30.414 59.4031 30.7848L58.7367 36.8824C58.6259 37.6649 58.2521 38.3864 57.6768 38.9284C57.1016 39.4703 56.3591 39.8004 55.5713 39.8645C53.2022 40.0273 50.8439 40.3221 48.5075 40.7475C46.7107 41.0083 44.8773 40.7056 43.2596 39.8812L31.9808 33.2172C31.2122 32.8204 30.365 32.5997 29.5005 32.5709C28.6361 32.542 27.7761 32.7059 26.9828 33.0505L17.4533 37.832C17.039 37.9627 16.6922 38.2502 16.4868 38.633C16.2814 39.0158 16.2336 39.4637 16.3537 39.8812C16.4894 40.2955 16.7444 40.6606 17.0867 40.9307L25.9332 48.3111C26.3428 48.6364 26.6447 49.0777 26.7995 49.5773C26.9201 50.0387 26.9302 50.5221 26.8289 50.9882C26.7276 51.4542 26.5177 51.8898 26.2164 52.2595C25.6041 53.0357 25.0474 53.854 24.5504 54.7085C24.1429 55.4313 23.5532 56.0346 22.84 56.4584C22.1268 56.8823 21.3149 57.1119 20.4854 57.1243L6.37437 56.2746C6.01664 56.2408 5.65585 56.2867 5.31797 56.4089C4.98008 56.5312 4.67347 56.7268 4.42019 56.9817C4.16691 57.2365 3.97323 57.5443 3.8531 57.883C3.73297 58.2216 3.68936 58.5827 3.72541 58.9402L4.27519 66.3539C4.29535 66.5911 4.34001 66.8256 4.40847 67.0536L4.29187 67.1702ZM103.119 72.718C104.785 78.3657 102.436 83.7803 95.7719 87.1123C84.5431 92.7433 65.484 90.3276 53.2056 81.7477C48.2076 78.2491 45.1255 74.2674 43.9426 70.4023C42.2766 64.7546 44.6424 59.34 51.3064 56.008C62.5352 50.3769 81.5776 52.7926 93.856 61.3726C98.854 64.8712 101.953 68.8529 103.119 72.718Z" fill="white" fill-opacity="0.8"/>
</g>
</svg>
