<svg width="35" height="35" viewBox="0 0 35 35" fill="none" xmlns="http://www.w3.org/2000/svg">
<path d="M28.6633 29.7512C26.1673 32.0363 23.0498 33.5299 19.7049 34.0432C16.3601 34.5564 12.9382 34.0663 9.87189 32.6348C6.8056 31.2033 4.23269 28.8947 2.47846 26.0009C0.724232 23.1071 -0.13249 19.7581 0.0166239 16.3774C0.165738 12.9967 1.31399 9.73611 3.31619 7.008C5.31838 4.27988 8.08455 2.20674 11.265 1.05075C14.4454 -0.105235 17.8972 -0.292163 21.1838 0.513606C24.4705 1.31937 27.4444 3.08166 29.7295 5.5776C31.2468 7.23487 32.4228 9.17475 33.1904 11.2865C33.9579 13.3983 34.302 15.6405 34.203 17.8852C34.104 20.13 33.5638 22.3332 32.6133 24.3692C31.6628 26.4052 30.3206 28.234 28.6633 29.7512Z" fill="#128A5C"/>
<path opacity="0.5" d="M28.6633 29.7512C26.1673 32.0363 23.0498 33.5299 19.7049 34.0432C16.3601 34.5564 12.9382 34.0663 9.87189 32.6348C6.8056 31.2033 4.23269 28.8947 2.47846 26.0009C0.724232 23.1071 -0.13249 19.7581 0.0166239 16.3774C0.165738 12.9967 1.31399 9.73611 3.31619 7.008C5.31838 4.27988 8.08455 2.20674 11.265 1.05075C14.4454 -0.105235 17.8972 -0.292163 21.1838 0.513606C24.4705 1.31937 27.4444 3.08166 29.7295 5.5776C31.2468 7.23487 32.4228 9.17475 33.1904 11.2865C33.9579 13.3983 34.302 15.6405 34.203 17.8852C34.104 20.13 33.5638 22.3332 32.6133 24.3692C31.6628 26.4052 30.3206 28.234 28.6633 29.7512Z" fill="white"/>
<path opacity="0.35" d="M6.02232 19.5054C3.9065 10.7589 9.5209 2.84537 17.8176 0.0131684C15.3113 -0.0852143 12.8141 0.368631 10.5028 1.34254C8.19139 2.31645 6.12243 3.78661 4.44235 5.64893C2.76227 7.51125 1.51221 9.72017 0.780637 12.1193C0.0490623 14.5184 -0.14614 17.049 0.208916 19.5319C0.563972 22.0148 1.46058 24.3893 2.83522 26.4872C4.20987 28.5851 6.02896 30.3551 8.16365 31.6719C10.2983 32.9888 12.6964 33.8201 15.1881 34.1072C17.6798 34.3943 20.2042 34.13 22.5824 33.3332C17.9675 34.4161 8.25476 28.8017 6.02232 19.5054Z" fill="white"/>
</svg>
