<svg width="512" height="174" viewBox="0 0 512 174" fill="none" xmlns="http://www.w3.org/2000/svg">
<path opacity="0.2" d="M255.996 159.511C373.83 159.511 469.354 127.048 469.354 87.0024C469.354 46.9571 373.83 14.4939 255.996 14.4939C138.161 14.4939 42.6373 46.9571 42.6373 87.0024C42.6373 127.048 138.161 159.511 255.996 159.511Z" fill="#128A5C" fill-opacity="0.69"/>
<path opacity="0.2" d="M384 130.5C454.692 106.476 454.692 67.5244 384 43.5C313.308 19.4756 198.692 19.4756 128 43.5C57.3076 67.5244 57.3076 106.476 128 130.5C198.692 154.524 313.308 154.524 384 130.5Z" fill="#128A5C" fill-opacity="0.69"/>
<path opacity="0.2" d="M366.401 124.519C427.374 103.798 427.374 70.2021 366.401 49.4809C305.428 28.7596 206.572 28.7596 145.599 49.4809C84.6261 70.2021 84.6261 103.798 145.599 124.519C206.572 145.24 305.428 145.24 366.401 124.519Z" fill="#128A5C" fill-opacity="0.69"/>
<path opacity="0.2" d="M352.621 119.836C405.984 101.701 405.984 72.2988 352.621 54.1638C299.259 36.0289 212.741 36.0289 159.379 54.1638C106.016 72.2988 106.016 101.701 159.379 119.836C212.741 137.971 299.259 137.971 352.621 119.836Z" fill="#128A5C" fill-opacity="0.69"/>
</svg>
