<svg width="66" height="66" viewBox="0 0 66 66" fill="none" xmlns="http://www.w3.org/2000/svg">
<path d="M56.3345 42.6654C61.6726 29.7781 55.5528 15.0035 42.6655 9.66546C29.7782 4.32736 15.0036 10.4472 9.66548 23.3345C4.32739 36.2218 10.4472 50.9964 23.3345 56.3345C36.2218 61.6726 50.9964 55.5527 56.3345 42.6654Z" fill="#128A5C" fill-opacity="0.69"/>
<path opacity="0.5" d="M56.3345 42.6654C61.6726 29.7781 55.5528 15.0035 42.6655 9.66546C29.7782 4.32736 15.0036 10.4472 9.66548 23.3345C4.32739 36.2218 10.4472 50.9964 23.3345 56.3345C36.2218 61.6726 50.9964 55.5527 56.3345 42.6654Z" fill="white" fill-opacity="0.7"/>
<path opacity="0.35" d="M24.5644 47.4602C12.9319 41.0414 9.80851 27.0234 15.096 15.1941C12.4798 17.823 10.4746 20.9958 9.22297 24.4871C7.97135 27.9784 7.504 31.7025 7.85413 35.3949C8.20427 39.0872 9.3633 42.6571 11.2489 45.8509C13.1344 49.0448 15.7002 51.7841 18.764 53.8744C21.8277 55.9647 25.3143 57.3545 28.9758 57.9452C32.6373 58.5359 36.3841 58.313 39.9497 57.2922C43.5154 56.2715 46.8125 54.4779 49.6067 52.0391C52.401 49.6003 54.6238 46.5759 56.1173 43.181C52.6989 49.3293 36.9101 54.2971 24.5644 47.4602Z" fill="white" fill-opacity="0.7"/>
</svg>
